<?xml version="1.0" encoding="utf-8"?>
<!-- Generator: Adobe Illustrator 17.1.0, SVG Export Plug-In . SVG Version: 6.00 Build 0)  -->
<!DOCTYPE svg PUBLIC "-//W3C//DTD SVG 1.1//EN" "http://www.w3.org/Graphics/SVG/1.1/DTD/svg11.dtd">
<svg version="1.1" id="Layer_1" xmlns="http://www.w3.org/2000/svg" xmlns:xlink="http://www.w3.org/1999/xlink" x="0px" y="0px"
	 viewBox="0 0 550 367" enable-background="new 0 0 550 367" xml:space="preserve">
<g>
	<path d="M271.2,305.1c-2.7,0-5.3,0-8,0c-9.3-2.2-18.5-4.5-27.8-6.7c-34.3-8.1-68.7-16.2-102.9-24.5c-4.2-1-9.8-1.1-11.2-7.2
		c-0.1-0.6-1.2-1.1-1.9-1.5c-4.5-2.1-6.3-6.1-7.2-10.7c-4.1-21.7-8.2-43.4-12.3-65c-5.5-29-11.1-57.9-16.7-86.9
		c-1.8-9.5-2.9-19-4.8-28.5c0-4-4.4-12,0-12c4.4,0,30.8,0.8,32.7,0.8c56.4,1.7,112.8,3.3,169.2,5c8.2,0.2,10.1,1.7,11.9,9.7
		c5.4,24.3,10.8,48.6,16.2,72.8c5.7,25.7,11.5,51.4,17.3,77.2c0.6,2.8,1.5,4.9,5.3,5.4c15.6,2,31.2,4.3,46.8,6.7
		c21.6,3.4,43.3,6.8,64.9,10.4c11.3,1.9,22.5,4,33.8,6c0,2.7,0,5.3,0,8c-5.3,3.4-9.8,7.6-16.8,8.3c-11.3,1.1-22.5,3.8-33.8,5.7
		c-16.9,2.9-33.8,5.6-50.6,8.5c-21.4,3.7-42.8,7.6-64.1,11.4C297.6,300.4,284.4,302.7,271.2,305.1z M194.6,79.7
		c15.8,0.5,30.9,1,46,1.5c11.8,0.4,23.6,0.9,35.4,1.1c5.2,0.1,8.4,1.5,9.2,7.2c0.8,5.7,2.7,11.2,4.2,16.7
		c-0.8-8.3-2.4-16.4-4.4-24.3c-0.2-0.9-2.5-1.8-3.9-1.9c-6.8-0.3-13.6-0.3-20.5-0.3C238.9,79.7,217.1,79.7,194.6,79.7z M116.9,194.5
		c-0.1,0-0.3,0-0.4,0.1c0,1.1-0.2,2.2,0,3.3c2.3,12.1,4.6,24.1,6.9,36.2c2.2,11.3,2.1,11.3,13.8,10.2c1.4-0.1,2.9-0.2,4.3-0.3
		c-2.4-0.8-4.7-0.8-7-0.5c-7.8,0.8-7.8,0.8-9.3-7C122.5,222.4,119.7,208.5,116.9,194.5z M166.8,274.5c0.3-5.5-0.4-6-7-5.8
		C158.7,274.6,163.3,273.5,166.8,274.5z M133.5,266.8c1.9-6.2-2.7-5.3-5.9-6.2C125.6,266.8,130.2,266,133.5,266.8z M181.4,256.4
		c0,0.3,0,0.6,0.1,0.8c6.3-0.7,12.5-1.3,18.8-2c0-0.4-0.1-0.7-0.1-1.1C194,254.9,187.7,255.6,181.4,256.4z"/>
	<path fill="#FFFFFF" d="M194.6,79.7c22.5,0,44.3,0,66.1,0c6.8,0,13.7,0,20.5,0.3c1.4,0.1,3.7,1,3.9,1.9c2,8,3.6,16.1,4.4,24.3
		c-1.4-5.6-3.3-11.1-4.2-16.7c-0.9-5.8-4.1-7.2-9.2-7.2c-11.8-0.2-23.6-0.7-35.4-1.1C225.5,80.7,210.4,80.2,194.6,79.7z"/>
	<path fill="#FFFFFF" d="M116.9,194.5c2.8,14,5.6,27.9,8.3,41.9c1.5,7.8,1.5,7.8,9.3,7c2.3-0.2,4.6-0.3,7,0.5
		c-1.4,0.1-2.9,0.2-4.3,0.3c-11.7,1.1-11.7,1.1-13.8-10.2c-2.3-12.1-4.6-24.1-6.9-36.2c-0.2-1.1,0-2.2,0-3.3
		C116.6,194.5,116.7,194.5,116.9,194.5z"/>
	<path fill="#FFFFFF" d="M166.8,274.5c-3.5-0.9-8.1,0.1-7-5.8C166.4,268.4,167.1,269,166.8,274.5z"/>
	<path fill="#FFFFFF" d="M133.5,266.8c-3.3-0.8-7.8,0.1-5.9-6.2C130.8,261.5,135.3,260.6,133.5,266.8z"/>
	<path fill="#FFFFFF" d="M181.4,256.4c6.3-0.8,12.5-1.5,18.8-2.3c0,0.4,0.1,0.7,0.1,1.1c-6.3,0.7-12.5,1.3-18.8,2
		C181.5,256.9,181.5,256.6,181.4,256.4z"/>
	<path fill="#FFFFFF" d="M226.5,281.4c0,0,36.1,8.6,40.9,8.4s38.9-5.9,39.7-6.1c0.8-0.2-35.4,5.4-39.5,5.3
		C263.5,288.9,226.5,281.4,226.5,281.4z"/>
	<g>
		<polygon fill="#FFFFFF" points="223.1,269.4 379.6,248.3 223.3,270.4 		"/>
	</g>
	<g>
		<polygon fill="#FFFFFF" points="223.1,270.4 164.4,257.8 223.3,269.4 		"/>
	</g>
	<g>
		<polygon fill="#FFFFFF" points="197.8,264.1 326,247.5 198,265.1 		"/>
	</g>
	<g>
		<polygon fill="#FFFFFF" points="208.7,266.4 354.2,246.5 208.8,267.4 		"/>
	</g>
	<g>
		<polygon fill="#FFFFFF" points="188.4,262.1 303.4,247.1 188.5,263.1 		"/>
	</g>
	<g>
		<polygon fill="#FFFFFF" points="178.3,260 275.7,247.4 178.4,261 		"/>
	</g>
	<g>
		<polygon fill="#FFFFFF" points="166.9,257.9 257.6,246.6 167,258.9 		"/>
	</g>
	<g>
		<polygon fill="#FFFFFF" points="224.4,264.3 236.9,268 224.2,265.3 		"/>
	</g>
	<g>
		<polygon fill="#FFFFFF" points="236.3,262.7 248.8,266.4 236,263.7 		"/>
	</g>
	<g>
		<polygon fill="#FFFFFF" points="248.6,260.9 261.1,264.6 248.4,261.9 		"/>
	</g>
	<g>
		<polygon fill="#FFFFFF" points="263,259 276,262.6 262.7,260 		"/>
	</g>
	<g>
		<polygon fill="#FFFFFF" points="317,251.3 331.4,254.9 316.8,252.3 		"/>
	</g>
	<g>
		<polygon fill="#FFFFFF" points="331,249.4 344.6,253.2 330.7,250.4 		"/>
	</g>
	<g>
		<polygon fill="#FFFFFF" points="228.4,260 238.4,262.8 228.2,261 		"/>
	</g>
	<g>
		<polygon fill="#FFFFFF" points="240.9,258.2 250.8,261 240.7,259.2 		"/>
	</g>
	<g>
		<polygon fill="#FFFFFF" points="252.3,256.8 262.2,259.6 252,257.8 		"/>
	</g>
	<g>
		<polygon fill="#FFFFFF" points="264.1,255.3 273.7,257.9 263.9,256.3 		"/>
	</g>
	<g>
		<polygon fill="#FFFFFF" points="275.4,253.8 284.3,256.4 275.2,254.7 		"/>
	</g>
	<g>
		<polygon fill="#FFFFFF" points="287.2,252.4 295,254.8 287,253.4 		"/>
	</g>
	<g>
		<polygon fill="#FFFFFF" points="297.7,250.9 306.3,253.3 297.5,251.9 		"/>
	</g>
	<g>
		<polygon fill="#FFFFFF" points="308.4,249.3 316.9,251.8 308.2,250.3 		"/>
	</g>
	<g>
		<polygon fill="#FFFFFF" points="212.8,259 221.8,261.5 212.6,260 		"/>
	</g>
	<g>
		<polygon fill="#FFFFFF" points="224.7,257.1 233.2,259.9 224.4,258.1 		"/>
	</g>
	<g>
		<polygon fill="#FFFFFF" points="236.6,255.6 245.7,258.2 236.3,256.6 		"/>
	</g>
	<g>
		<polygon fill="#FFFFFF" points="248.5,254 256.7,256.7 248.3,255 		"/>
	</g>
	<g>
		<polygon fill="#FFFFFF" points="259,252.6 267.9,255.1 258.8,253.6 		"/>
	</g>
	<g>
		<polygon fill="#FFFFFF" points="202,256.9 210.2,259.7 201.7,257.9 		"/>
	</g>
	<g>
		<polygon fill="#FFFFFF" points="212.2,255.6 220.5,258.2 212,256.6 		"/>
	</g>
	<g>
		<polygon fill="#FFFFFF" points="224.6,253.9 232.5,256.7 224.3,254.9 		"/>
	</g>
	<g>
		<polygon fill="#FFFFFF" points="235.4,252.5 244,255.1 235.2,253.5 		"/>
	</g>
	<g>
		<polygon fill="#FFFFFF" points="184.8,255.7 193.3,258.6 184.6,256.7 		"/>
	</g>
	<g>
		<polygon fill="#FFFFFF" points="196,254.3 204.1,257.1 195.7,255.2 		"/>
	</g>
	<g>
		<polygon fill="#FFFFFF" points="207.3,252.8 215.8,255.6 207.1,253.8 		"/>
	</g>
	<g>
		<polygon fill="#FFFFFF" points="220,251.2 228.3,253.9 219.8,252.2 		"/>
	</g>
	<g>
		<polygon fill="#FFFFFF" points="230.7,249.8 239.6,252.4 230.5,250.8 		"/>
	</g>
	<g>
		<path fill="none" d="M181.3,256.7"/>
	</g>
	<g>
		<polygon fill="#FFFFFF" points="175.4,254.3 181.9,256.5 175.1,255.2 		"/>
	</g>
	<g>
		<polygon fill="#FFFFFF" points="188.4,252.6 195.3,254.8 188.1,253.6 		"/>
	</g>
	<g>
		<polygon fill="#FFFFFF" points="200.8,250.9 207.5,253.3 200.5,251.8 		"/>
	</g>
	<g>
		<polygon fill="#FFFFFF" points="212.1,249.4 218.7,251.8 211.9,250.4 		"/>
	</g>
</g>
</svg>
