<?xml version="1.0" encoding="utf-8"?>
<!-- Generator: Adobe Illustrator 17.1.0, SVG Export Plug-In . SVG Version: 6.00 Build 0)  -->
<!DOCTYPE svg PUBLIC "-//W3C//DTD SVG 1.1//EN" "http://www.w3.org/Graphics/SVG/1.1/DTD/svg11.dtd">
<svg version="1.1" id="Layer_1" xmlns="http://www.w3.org/2000/svg" xmlns:xlink="http://www.w3.org/1999/xlink" x="0px" y="0px"
	 viewBox="0 0 550 367" enable-background="new 0 0 550 367" xml:space="preserve">
<path d="M309.6,290.7c1.5-0.3,3.7-0.7,6.8-1.2c-3.5-3.4-7.7-6.3-4.5-10.4c2-2.6,6.1-3.6,9.7-4.9c6.6-12.9-0.8-23.4-7-34.2
	c-1.4-2.5-2.8-5.2-3.3-8c-0.6-3.3-1.5-5.2-5-3.8c-2.5,0.9-3.7,0.1-4.4-2.3c-3.2-10.1-6.5-20.1-10.1-31.3c-2.6,0.8-5.7,2-8.8,2.7
	c-3,0.7-6.3,1.6-9.2,1c-2.4-0.5-4.4-2.9-7.3-5c0.6,2.5,0.7,5.1,1.8,7c3.7,6.2,5.1,12.9,5.3,20c0.1,4.6,2.1,8.1,5.5,11.7
	c3.7,4,5.5,9.7,7.9,14.8c0.2,0.5-1.5,2.4-2.7,2.8c-0.9,0.3-2.3-0.8-4.1-1.4c0.9,5.4-2.8,6.6-6.2,8.1c-2.6,1.2-5,2.8-7.5,4
	c-3.3,1.6-5.8,0.9-6.7-3.1c-0.9-4.4-2.6-8.8,3.3-11.4c1.3-0.6,1.9-2.9,2.6-4.5c3.2-7.5-1.5-13.5-4.1-19.8c-1.8-4.4-3.8-8.8-5.7-13.2
	c-2.5-5.9-5.3-11.7-7.5-17.7c-3.4-9.6-2.6-12,6.1-15.4c9.4-3.6,19.1-5.5,29.1-5.5c1.1,0,2.2-0.3,3.6-0.6c-0.1-1,0-2-0.4-2.5
	c-5.7-7.7-6.5-15.4-0.8-21.8c3.2-3.5,6-6.9,8.5-10.9c-0.4-0.2-0.7-0.5-1.1-0.7c-1.5,2-2.8,4.2-4.4,6.1c-2.4,3.1-5.4,5.8-7.4,9.1
	c-3.5,5.7-8.1,7.9-14.8,9.4c-4.7,1-8.3,0.5-12.5-0.1c-2.7-0.3-5.7-0.2-8.2,0.8c-3.7,1.6-6.5,0.2-7.1-2.8c-1.4-6.5-7.3-6.7-12-9.4
	c0.2,2.1,0.4,4.1,0.6,6.2c3.8,30.5,7.4,61.1,11.5,91.6c0.6,4.6-1,10.2,4.5,13.8c-0.7,0.6-1.4,1-1.8,1.6c-0.7,0.9-1.7,2.1-1.6,2.9
	c0.2,1,1.4,2.4,2.3,2.6c4.9,0.7,9.8,1.4,14.7,1.6c3.6,0.1,6.1,0.2,6.5,4.7c0.1,1.3,3.2,2.4,5.1,3.2c1.7,0.8,3.5,1.1,4.9,2.6
	c-3.4-0.6-6.9-0.9-10.1-1.9c-1.1-0.3-1.7-2.3-2.6-3.5c-0.9-1.1-1.8-2.7-2.9-2.8c-7.9-0.8-15.9-1.5-23.8-1.7
	c-8.3-0.3-16.6,0.1-24.9,0.1c-2.3,0-4.6-0.3-6.9-0.4c0-0.6,0.1-1.3,0.1-1.9c11.6,0,23.2,0,34.8,0c0.3-0.5,0.6-0.9,1-1.4
	c-1.1-1.7-2.2-3.4-2.9-4.5c0.4-4.2,1.6-8.3,1.1-12.3c-3.6-30.6-7.5-61.1-11.3-91.6c-0.4-2.8-0.7-5.6-1.1-8.4c-0.1-0.8-0.3-2-0.8-2.2
	c-5.5-2.3-5.4-7.3-6-12c-0.5-3.2-0.3-6.1,4.4-5.7c-1.2-11-2.4-21.6-3.6-32.2c0.5-0.2,1.1-0.3,1.6-0.5c0.4,0.9,1.2,1.8,1.3,2.8
	c1.1,8.7,2.2,17.5,3.2,26.2c0.1,0.8,0.1,2.3,0.4,2.4c4.6,1.4,3.7,6.2,5.8,9.1c1.8,2.5,4.1,4.8,6.5,7.5c1.1-1.5,1.6-2.2,2.3-2.9
	c2.2-2.2,4.6-3.1,7.1-0.6c5.8,6,11,5.4,15.1-1.9c0.4-0.7,1.1-1.4,1.7-1.6c9.4-2.9,11.5-12.2,16.3-19c0.7-0.9-0.1-3.6-1.1-4.7
	c-0.8-0.9-3.2-1.5-4.3-0.9c-4.3,2.2-6.7-2.4-7-4.1c-0.4-2.1-0.3-4.8-1.5-5.9c-0.8-0.7-2.9-1.2-3.9-1.3c-2.5-0.2,0-6.1-0.8-9.6
	c-0.6-2.8-2.9-5.5-3.5-8.2c-1.8,0.3-3,0.4-4.3,0.6c0.9-3.2,1.8-6.2,2.6-9.3c-0.4-0.2-0.9-0.4-1.3-0.6c7.5-6.6,15.8-11.1,26.2-8.7
	c6.5,1.5,11,5.8,13.7,11.8c1.2,2.6,2.4,5.3,1.1,8.6c-0.5,1.2,0.5,3.2,1,5.6c-7.7,4.2-7.3,11.2-3.7,18.6c0.7,1.4,3.4,1.9,5.4,2.3
	c-4.8-8.2-4.9-13.4,2.3-19.6c4.9-4.2,11.3-6.9,17.4-9.2c4.8-1.8,8.6,1.5,11,5.8c1.5,2.8,2.8,5.7,4,8.6c3.4,7.7,3.2,8.3-4.9,12.7
	c1.8,0.1,2.9,0.6,3.8,0.2c4.7-1.8,8,0.7,9.3,4.4c1.5,4.4,4.8,9.1,0.7,14.1c-0.5,0.6-0.5,2.1-0.1,2.7c4.9,7.6,2.3,16.5,4,24.6
	c1.5,7.2-2.7,10.9-10.7,12.2c-0.1,1,0.5,11.7,0.4,12.2c-2-1.1-4.7-11.8-7.7-13.5c0,3.2,0.8,8.4,0.8,9.7c-2-2.5-4.7-8.6-6.7-11.1
	c-0.7,0.3-1.3,0.6-2,0.9c0.3,2.2,0.7,4.5,1,6.7c0.5,4,1.1,8.1,1.4,12.1c0.6,8.9,0.9,17.7,1.8,26.6c0.2,2.2,1.8,4.6,3.3,6.4
	c1.9,2.3,2.1,4.5-0.2,5.9c-3,1.8-2.3,3.9-1,5.8c5.2,7.5,7.4,15.5,6.9,24.8c-0.3,6,0.9,12.1,5.4,17.5c2.7,3.2,2.8,8.7,3.6,13.3
	c0.5,2.8-2,3.9-3.7,2.5c-3.6-2.8-5.2,0.2-8.1,1.8c5.8,1,10.9,2,16,2.8c3.8,0.6,5.9,2.2,6,6.5c0,2.7,0.6,5.7,4.9,5.1
	c1.3-0.2,2.8,1.2,4.7,2.1c-9,0.8-10.7-0.6-12.1-8c-0.3-1.4-2.3-3.3-3.6-3.4C333.7,292.5,321.3,291.7,309.6,290.7z M305.5,114.4
	c2.8,3.7,4.7,4.3,6.1,7.5c4.2,9.4,7.4,19.2,7.3,29.7c0,2.1,0.9,4.1,1.4,6.2C323.1,144.3,316.7,117.3,305.5,114.4z"/>
<path d="M271.8,283.8c5.1,1.1,10.1,2.5,15.2,3.3c5.1,0.8,10.4,1.2,15.5,2.3C289.1,291.3,272.4,287.5,271.8,283.8z"/>
</svg>
