<?xml version="1.0" encoding="utf-8"?>
<!-- Generator: Adobe Illustrator 17.1.0, SVG Export Plug-In . SVG Version: 6.00 Build 0)  -->
<!DOCTYPE svg PUBLIC "-//W3C//DTD SVG 1.1//EN" "http://www.w3.org/Graphics/SVG/1.1/DTD/svg11.dtd">
<svg version="1.1" id="Layer_1" xmlns="http://www.w3.org/2000/svg" xmlns:xlink="http://www.w3.org/1999/xlink" x="0px" y="0px"
	 viewBox="0 0 550 367" enable-background="new 0 0 550 367" xml:space="preserve">
<g>
	<g>
		<path d="M140,95.1c-1.9-4.6-2.5-4.3-1.3-8.2c1.2-3.8,9.2-3.4,14.3-4.2c2.4-0.4,2.2,1.5,1.7,3c-1.3,4.7,1,6.4,5.3,6.9
			c2.7,0.3,5.3-0.1,7.9-0.7c4-1,6.8-2.6,4.7-7.7c-1.4-3.4-0.3-5.3,4-4.8c2.9,0.3,6-0.1,8.9-0.4c38.4-4.8,76.8-9.6,115.2-14.5
			c2.7-0.3,3.9,0.2,3.1,3.1c-0.6,2-0.9,4.2,1.5,5.1c3.9,1.4,7.9,0.7,11.8,0.1c3.3-0.5,1.9-4.1,3-6.2c17.2,8.7,32.9,19.6,50,27.7
			c2,1,5.5,2.6,6.6,5.3s-1.8,4.2-1.8,6.9c-2.9,15.5-1.8,31.2-2.5,46.8c-1.1,23.1-1.5,46.3-2.1,69.4c-0.1,3-1.3,4.6-4.1,5.3
			c-5.8,1.5-11.5,3.4-17.4,4.6C298.5,242.7,243.4,253,193,263c-8.2,1.6-8,0.9-12.4-5.2c-11-15.3-22.1-30.5-33.2-45.7
			c-2.4-3.3-3.9-6.9-4.1-11c-0.9-25.6-1.7-51.3-2.9-76.9C140.2,115.9,140.9,103.7,140,95.1z M198,86.9c-3.2-5.4-8.1-5.6-13.2-5
			c-1,0.1-2.1,0.2-2.5,1.3c-0.5,1.3,0.6,2.1,1.5,2.9C188.3,89.8,193,88,198,86.9z"/>
		<path d="M317,55.5c2.7,4.5,1.5,9.6,1.3,14.2c-0.2,3.9-4.8,3.1-7.8,3.1c-2.4,0-5.7,0.2-5.7-3.3c0-4.7-0.9-9.7,2.3-14
			C310.3,55.5,313.7,55.5,317,55.5z"/>
		<path d="M162.7,91.6c-6.7-0.1-7.7-1.4-6.4-7.5c0.3-1.3,0.3-2.6,0.3-4c0.3-5.9,2.1-7.6,7.9-7.9c4.4-0.2,6.6,1.6,6.7,6
			c0,1.3,0,2.7,0.1,4C172,90,170.5,91.6,162.7,91.6z"/>
	</g>
	<line fill="none" stroke="#FFFFFF" stroke-miterlimit="10" x1="137.3" y1="92.3" x2="178" y2="134"/>
	<line fill="none" stroke="#FFFFFF" stroke-miterlimit="10" x1="178" y1="134" x2="376.1" y2="105.3"/>
	<line fill="none" stroke="#FFFFFF" stroke-miterlimit="10" x1="180" y1="143" x2="183.3" y2="257.3"/>
	<polygon fill="#FFFFFF" points="247,224.7 269.7,172.7 251.7,178.7 266,146.7 290,143 279,162.7 297.7,164.3 	"/>
	<polygon fill="#FFFFFF" points="191.9,116.1 175,99.2 178.6,98.7 195.6,115.4 	"/>
	<polygon fill="#FFFFFF" points="175,109.6 173.1,106.9 195.1,103.5 197.4,106.6 	"/>
	<polygon fill="#FFFFFF" points="317.1,89.5 314,87 336,83.6 338.9,86.1 	"/>
</g>
</svg>
