<?xml version="1.0" encoding="utf-8"?>
<!-- Generator: Adobe Illustrator 17.1.0, SVG Export Plug-In . SVG Version: 6.00 Build 0)  -->
<!DOCTYPE svg PUBLIC "-//W3C//DTD SVG 1.1//EN" "http://www.w3.org/Graphics/SVG/1.1/DTD/svg11.dtd">
<svg version="1.1" id="Layer_1" xmlns="http://www.w3.org/2000/svg" xmlns:xlink="http://www.w3.org/1999/xlink" x="0px" y="0px"
	 viewBox="0 0 550 367" enable-background="new 0 0 550 367" xml:space="preserve">
<path d="M414.3,223.8c-10.9,5.9-22.8,6.3-34.7,6.4c-9.2,0-18.4-0.8-27.6-1.8c-0.9-0.1-1.9-0.2-2.8-0.5c-2-0.7-3.6-0.5-4.9,1.4
	c-1.2,1.8-3.1,2.6-5.4,2.3c-6.6-0.6-13.3-0.5-20-1c-5.2-0.4-10.5,0.6-15.7,0.2c-1.3-0.1-2.8,0.4-3.7-1.3c-0.4-0.9-1.4-0.4-2-0.1
	c-4.7,2.9-10,2.6-15.1,2.4c-9.6-0.3-19.1-1-28.6-2.2c-2.4-0.3-4.9,0.1-7.4-0.4c-1.8-0.4-3.4-1.3-5.3-1.4c-1.2-0.1-1.6-1.3-0.7-2.6
	c1.4-2.2,3.4-3.2,5.9-3.2c3,0,5.9-0.7,8.9-1.7c-3.7-2.1-12.1-8.5-12.5-9.4c-1.5-3.4-4.5-4.3-7.8-5.8c-0.6-0.3-1.2-0.5-1.7-0.9
	c-2.3-2-4.6-2.8-7.7-1.4c-2.3,1-4.4-0.8-6.7-1.4c-2.7-0.8-3.7-2.3-4.2-4.8c-0.3-1.5-1.6-2.9-3.6-2.5c-1.7,0.3-3.4-0.3-5.2,0.7
	c-1.3,0.7-3,0.1-3.2-2c-0.1-0.7-0.1-1.3-0.2-2c-0.7-5.1,1.3-7.2,6.4-6.8c1.7,0.1,3.5,0.3,4.6-1.4c1.2-1.9,0.8-3.8-0.6-5.5
	c-0.5-0.6-0.9-1.5-1.5-2.1c-1.2-1.3-2.1-2.6-2.1-4.5c0-1.1-0.6-1.9-1.5-2.5c-1.1-0.7-2.2-1.6-2-2.9c0.5-3,0.8-6,0.7-9.1
	c0-1,0.8-1.8,1.6-2.5c7.6-6.9,17.2-9.4,26.7-12c0.5-0.1,3.2-0.5,2.8-0.3c-1.8,0.8,2,1,2.9,1.8c1.9,1.7,3.9,2.1,6.2,2.2
	c4.2,0.3,10.2-0.9,13.7-3.6c0.6-0.5,0.2,0.8,0.2,0.8s1.3,0.2,1.8-0.2c1.6-1.1,3.5-1.6,5.2-2.3c2.5-1.2,4.5-2.7,7.7-2.9
	c3.2-0.2,9.6-0.6,12.7-0.1c0.5,0.1-2.3,0.9-1.8,0.9c5.3,0,10.6,0.3,15.9,1.3c5.2,0.9,9.6,2.1,14.2,4.4c1.7,0.8,8.1,5,8.1,8.1
	c0,0.3-3.3-1.8-3.2-1.7c3.9,2.3,2.6,7.1,5,10.3c2.3,3.1,4.8,6.2,6.8,9.5c0.3,0.5,1.5,3.4,1,2.8c-1.5-1.7,0,2.1,0.5,3.6
	c0.3,0.9,1.2,3.4,1.2,4.3c0,0.4-0.5-0.9-1-0.4c-0.3,0.4-0.1,0.9,0.1,1.3c2.5,7.6,5.4,15,7.4,22.7c0.6,2.2,1.9,4.1,3.3,5.9
	c0.7,0.9,1.6,1.5,2.8,1.7c15.9,2.6,32,4.5,48,6.4c6.1,0.7,12.3,1.2,18,3.9C414.3,222.6,414.3,223.2,414.3,223.8z M227.8,152.7
	c-1,0.3-2,0.7-2,2c0.1,1.4,1.1,2.1,2.5,2.1c1.1,0,2.2-0.4,2-1.8C230.2,153.6,229.3,152.9,227.8,152.7z M212.9,156.2
	c0.9,3.5-2.7,2.9-4.1,4.5C212.4,161.4,213.5,160.2,212.9,156.2z M309.9,221.2c-1.7,1.4-3.4,2.8-5.1,4.3
	C307.5,224.5,308.6,223.6,309.9,221.2z"/>
<path d="M241.1,303.9c-0.7-1.2-1.5-2.3-2.2-3.5c-2.2-4.3-2.2-4.4,1.1-7.6c-0.1-0.6-0.6-0.6-1.1-0.6c-6.9,0.4-13.7,0.4-20.6-0.2
	c-1.7-0.1-3,0.7-4.2,1.9c-2,2-3.7,4.4-6.5,5.7c-3.3,1.6-6.6,0.6-8.3-2.7c-0.6-1.2-1.2-2.3-1.8-3.5c-1-2.3-1.2-4.2,1.3-5.8
	c1.5-0.9,0.3-1.6-0.7-1.7c-3.2-0.5-6.3-0.4-9.2,1.5c-4.1,2.8-7.7,6.3-12.1,8.7c-4.1,2.2-7.2,0.7-6.6-3.7c1-7.1-0.8-13.6-2.4-20.3
	c-0.1-0.5-0.2-0.9-0.2-1.4c-0.2-2.8,1.1-3.9,3.8-2.9c4,1.6,7.9,3.4,11.8,5.2c3.9,1.8,7.9,2.4,12.1,1.4c0.6-0.1,1.4-0.1,1.6-0.9
	c0.1-0.7-0.5-0.9-0.9-1.2c-3.8-2.9-3.7-7.2,0.3-10.3c5.6-4.3,8.8-4.5,14.8-0.8c0.2,0.1,0.5,0.3,0.7,0.4c2.5,0.6,4.2,4.4,6.9,2.7
	c2.2-1.4,4.9-1.7,6.8-3.8c2.8-3.1,6.7-2.1,10.2-1.8c1.4,0.1,2.1,2.2,3.1,3.5c0.6,0.9,1.2,1.6,2.5,1.5c8.2-0.7,15.8,1.9,23.2,4.9
	c2.6,1.1,5.4,1.6,7.8,3.1c0.7,0.5,1.5,0.9,1.5,1.9c0,1.1-1.1,1.2-1.8,1.5c-1.2,0.6-2.7,1-2.9,2.9c2.2,0,3.7-1.2,5.2-2.4
	c0.9-0.7,1.8-1.4,2.7-0.4c1.1,1.3,0.1,2.4-0.9,3.1c-4,2.4-7.8,5.4-12.2,7c-5.2,1.9-9.9,5.1-15.5,5.8c-1,0.1-1.8,0.9-1.8,1.9
	c0.3,4.2-1.3,7.6-3.9,10.8C242.2,303.9,241.7,303.9,241.1,303.9z M264.6,270.9c-1.3,0-2.5,0.3-2.6,1.9c-0.1,1.3,1,2,2.2,2.1
	c1.3,0,2.5-0.6,2.7-2C267,271.5,265.8,271,264.6,270.9z"/>
<path d="M201.8,107c-3.4,1.7-3.8,1.5-5.2-1.9c-0.3-0.7-0.4-1.4-1.3-0.9c-2.7,1.4-3-0.4-3.3-2.3c-0.3-2.1-4.2-4.9-6.2-4.1
	c-5.8,2.3-12,2.8-18,3.9c-7.6,1.4-13.6,5.1-18.2,11.2c-0.8,1.2-1.5,3.1-3.3,2.6c-1.7-0.4-2.5-2-2.6-3.9c-0.1-1.5-1.9-1.1-2.7-2.1
	c-1-1.3-2.3-2.2-0.5-4.2c-1.3,0.5-2.1,0.9-2.9,1c-0.9,0.1-1.4-0.5-1.7-1.2c-0.4-1,0.3-1.4,1-1.7c2.1-0.8,4.1-2,6.3-2.4
	c7.8-1.3,14.5-4.9,21-9c3.2-2,6.3-4,9.5-6c1.5-0.9,2.3-2,1.2-3.7c-1.4-2.2-0.6-4.9-2-7.2c-0.4-0.7-0.1-1.9-1.2-2.5
	c-1.1-0.6-1.2-1.7-0.5-2.6c1-1.3,0.8-2-0.7-2.3c-1.4-0.3-2.2-1.1-2-2.6c0.3-1.6,1.5-2.1,3-2c4,0.4,8,0.5,12,0.9
	c4.7,0.5,9.4-0.4,14,0.5c2.5,0.4,3.3,1.4,2.9,3.7c-0.1,0.6-0.2,1.3-0.2,1.9c0,0.8,0.5,1.5,1.3,1.7c0.9,0.2,1.4-0.3,1.7-1.1
	c0.6-1.2,1.3-2.3,2.3-3.2c1.1-1,2.5-1.8,3.8-1.2c1.7,0.7,3.2,1.4,5,0.2c0.6-0.4,1.3,0.3,0.8,1.1c-3.4,5-5.5,10.8-9.6,15.3
	c-2.8,3.2-6,5.6-9.7,7.5c-0.8,0.4-2.1,0.8-1.6,1.9c0.6,1.2,1.7,0.2,2.4-0.2c4.3-2.7,8.8-5.1,11.6-9.6c1-1.7,2.2-1.7,3.8-0.8
	c4.5,2.6,8.5,5.7,10.5,10.9c1.3,3.2,3.4,6,4.7,9.3c2.7,7,2.6,14.1,2.2,21.4c-0.1,1.3-0.2,2.8-1.7,3.3c-1.6,0.5-1.9-1.5-2.7-1.8
	c-3.9-1.5-4-4.9-4.5-8.1c-0.1-0.5-0.3-1.2-1-1.2c-0.7,0.1-0.6,0.8-0.6,1.4c0,0.7,0.5,1.6-0.4,2c-0.9,0.4-1.2-0.7-1.8-0.9
	c-2.7-0.8-4.8-2.6-7.3-3.9c-2.2-1.2-4.4-2.7-6.6-3.9C201.3,109.6,202.3,108.2,201.8,107z M190.5,85c4.9-0.4,11.3-6.2,10.4-9.4
	C198.6,80.1,193.9,81.4,190.5,85z"/>
<path d="M325.8,279.3c-0.7,0.5-1.2-0.3-1.6-0.8c-2.7-3.6-5.5-7.1-8.1-10.7c-1.6-2.3-3.7-4-5.9-5.6c-6.2-4.7-12.2-10-19.5-12.8
	c-6.1-2.3-12.2-4.8-18.7-6.1c-28.1-6-56.6-5.5-85.1-4.7c-1.3,0-2.6,0.4-4.1,0.4h0c-0.1,0-0.8-0.1-1.9-0.5c-0.5-0.2-1.1-0.4-1.7-0.8
	c-0.3-0.2-0.5-0.5-0.6-0.9c-0.5-1.9,1.4-5.8,0.6-5.5c-0.9,0.4-2.7,2.6-2.7,2.6v-3.4l-1.2,5c0,0-0.8-9.4-0.9-8.6
	c-0.1,0.9-0.5,7-0.5,7s-2.4-2-1.9-1c0.5,1,1.1,3.6,1.2,4.7c0,0,0,0.1,0,0.1c0,1-0.6,1.5-0.6,1.5l-2,0.2l-1.3,0.1h0
	c-6,0.1-11.9-0.5-18.1-1.3c1.1-1.7,2.4-1.7,3.6-1.6c5,0.2,9.9,0.6,14.9,0.9c0.4,0,0.9,0,1.2,0.2c0.1-0.8,0.3-2.9-0.7-5.6
	c-1.5-3.8-4.5-8.4-5.8-9.9c-3-3.4,8.4,8.9,8.4,8.9l1.9-22.4l1.5,18.5c0,0,3.2-11.4,8.5-11.9c5.3-0.6,6,2.3,6,2.3s-7-4.1-9.7,4.1
	c-1,3.1-1,4.8-2.3,8.5c0,0,9.9-5.9,5.7-2.9c-4.2,3-3.5,6.5-3.7,7.7c-0.2,1.2,6,0.6,6,0.6c2.1-0.6,4.2-0.7,6.5-0.5
	c6.2,0.6,12.4,0.5,18.6,0.3c12.9-0.3,25.8-0.7,38.5,1.4c12.8,2.2,25.7,3.9,37.8,8.6c5.2,2,10,4.8,14.5,8.1c5,3.8,9.9,7.7,14.7,11.8
	c3.9,3.3,6.2,7.8,8.5,12.2C326,278,326.4,278.8,325.8,279.3z"/>
<path d="M170.6,239.4c-0.1,0-0.2,0.1-0.3,0.1c-0.2,0-0.5,0-0.7,0h-0.3L170.6,239.4z"/>
<path d="M169.4,239.5l1.3-0.1c-0.1,0-0.2,0.1-0.3,0.1L169.4,239.5z"/>
</svg>
