<?xml version="1.0" encoding="utf-8"?>
<!-- Generator: Adobe Illustrator 17.1.0, SVG Export Plug-In . SVG Version: 6.00 Build 0)  -->
<!DOCTYPE svg PUBLIC "-//W3C//DTD SVG 1.1//EN" "http://www.w3.org/Graphics/SVG/1.1/DTD/svg11.dtd">
<svg version="1.1" id="Layer_1" xmlns="http://www.w3.org/2000/svg" xmlns:xlink="http://www.w3.org/1999/xlink" x="0px" y="0px"
	 viewBox="0 0 550 367" enable-background="new 0 0 550 367" xml:space="preserve">
<g>
	<path d="M466.8,229c0,1.7,1.3,16.9-2.8,20.3c-7.3,6.1-47.6,29.6-53.7,33.5c-1.5,0.9-1.1,6.6-7,9.1c-14.5,6.1-13.3,4-37.1,3.8
		c-24.5-1.6-46.4-2.1-71-4c-29.7-2.2-59.4-4.5-89.2-6.7c-19.9-1.5-39.9-2.8-59.8-4.3c-17.1-1.3-38.9-1.6-56-2.9
		c-3.4-0.2-5.2-1.9-5.6-5.2c-0.9-8.4-1.9-160-1.6-186.4c0.1-5.2,8.3-5.2,11.7-5.5c13.2-1.3,74.5-6.1,93.5-9.5
		c5.8-1,11.9-0.4,17.8-0.3c14.3,0.2,28.8-0.2,44-0.2c49.5,0,98.9,1.8,148.4,2.5c20,0.3,39.9,0.2,59.9,0.2c8.3,0,6.1-0.1,6.1,8
		C464.4,107.7,466.8,202.3,466.8,229z"/>
	<g>
		<path fill="#FFFFFF" d="M406.6,98.6c0,0,0.8,45.3,1.5,90.6c0.2,11.3,0.4,22.7,0.5,33.3c0.1,5.3,0.2,10.4,0.2,15.3
			c0,4.9,0,9.5,0.1,13.7c0,8.5,0.1,15.6,0.1,20.5c0,5,0,7.8,0,7.8l-0.1,0c0,0-0.1-2.8-0.2-7.8c-0.2-5-0.3-12-0.5-20.5
			c-0.1-4.2-0.2-8.9-0.3-13.7c-0.1-4.9-0.1-10-0.2-15.3c-0.1-10.6-0.2-22-0.3-33.3c-0.4-45.3-0.8-90.7-0.8-90.7L406.6,98.6z"/>
	</g>
	<g>
		<path fill="#FFFFFF" d="M87.4,83.8l154.1,1.9l77,1l19.3,0.3l19.3,0.4l38.5,0.7l0,0c1,0,2,0,3,0.1c0.5,0.1,1,0.2,1.5,0.3
			c0.5,0.1,1,0.2,1.5,0.4l0.7,0.3l0.7,0.3c0.5,0.2,0.9,0.5,1.3,0.8c0.4,0.3,0.8,0.6,1.1,1.1c0.2,0.2,0.3,0.4,0.5,0.6l0.4,0.7
			c0.1,0.2,0.2,0.5,0.3,0.7l0.2,0.7c0.1,0.5,0.1,1,0.1,1.5l0,3l0,3l0,1.5l0,0.7l0,0.4c0,0.1,0,0.1,0,0.2l0,0c0,0-0.1,0-0.1,0l0-0.1
			l0.1,0l0,0.1c0,0-0.1,0.1-0.1,0c0,0,0,0,0-0.1c0-0.1,0-0.1,0-0.2l0-0.4l0-0.7l0-1.5l0-3l0-3c0-0.5-0.1-1-0.1-1.5l-0.2-0.7
			c-0.1-0.2-0.1-0.5-0.3-0.7l-0.3-0.6c-0.1-0.2-0.3-0.4-0.4-0.6c-0.3-0.4-0.7-0.7-1.1-1c-0.4-0.3-0.8-0.5-1.3-0.7l-0.7-0.3l-0.7-0.2
			c-0.5-0.2-0.9-0.2-1.4-0.4c-0.5-0.1-1-0.2-1.5-0.2c-1-0.1-2-0.2-2.9-0.1l0,0l0,0L357,88.3l-19.3-0.2l-19.3-0.3l-77-1.3L87.4,83.9
			L87.4,83.8z"/>
	</g>
	<g>
		<path fill="#FFFFFF" d="M462.2,76.2c0,0-13.3,3.5-26.6,7.1c-3.3,0.9-6.6,1.8-9.8,2.6c-1.6,0.4-3.1,0.8-4.5,1.1
			c-1.4,0.3-2.8,0.7-4.1,0.9c-1.3,0.3-2.4,0.5-3.4,0.8c-1,0.2-1.9,0.4-2.7,0.6c-1.5,0.3-2.3,0.5-2.3,0.5l0-0.1c0,0,0.8-0.3,2.3-0.7
			c0.7-0.2,1.6-0.5,2.6-0.8c1-0.3,2.1-0.6,3.4-1c1.2-0.3,2.6-0.7,4-1.1c1.4-0.4,2.9-0.8,4.5-1.2c3.1-0.8,6.5-1.6,9.8-2.4
			C448.8,79.3,462.1,76.1,462.2,76.2L462.2,76.2z"/>
	</g>
	<g>
		<path fill="#FFFFFF" d="M104.3,144.7c0,0,4.3,0,11.9,0c7.6,0,18.4,0.1,31.4,0.1c6.5,0,13.5,0.1,21,0.1c7.4,0.1,15.3,0.1,23.4,0.2
			c16.2,0.2,33.5,0.3,50.8,0.5c8.7,0.1,17.3,0.1,25.8,0.2c8.5,0,16.9,0.1,25,0.3c8.1,0.2,15.9,0.5,23.4,0.9
			c3.7,0.2,7.3,0.4,10.8,0.6c3.5,0.2,6.9,0.5,10.1,0.7c3.2,0.2,6.3,0.4,9.3,0.7c3,0.2,5.8,0.4,8.4,0.7c2.6,0.2,5.1,0.5,7.4,0.7
			c2.3,0.2,4.4,0.4,6.3,0.6c3.8,0.4,6.7,0.7,8.8,1c2,0.3,3.1,0.4,3.1,0.4l0,0.8c0,0-1.1,0.1-3.1,0.2c-2,0.1-5,0.3-8.8,0.5
			c-1.9,0.1-4,0.2-6.3,0.3c-2.3,0.1-4.8,0.2-7.4,0.3c-2.6,0.1-5.4,0.1-8.4,0.2c-3,0.1-6.1,0.1-9.3,0.2c-3.2,0-6.6,0.1-10.1,0.1
			c-3.5,0-7.1,0-10.8,0c-7.4,0-15.3-0.1-23.4-0.3c-8.1-0.3-16.5-0.7-25-1.1c-8.5-0.4-17.2-0.8-25.8-1.3c-17.3-0.8-34.6-1.6-50.8-2.3
			c-8.1-0.4-15.9-0.7-23.4-1.1c-7.4-0.4-14.5-0.7-20.9-1c-13-0.7-23.8-1.2-31.3-1.6c-7.6-0.4-11.9-0.6-11.9-0.6L104.3,144.7z"/>
	</g>
	<g>
		<path fill="#FFFFFF" d="M104.9,158.4c0,0,4.3,0,11.9,0.1c7.6,0.1,18.4,0.2,31.4,0.3c6.5,0.1,13.5,0.2,21,0.2
			c7.4,0.1,15.3,0.2,23.4,0.4c16.2,0.3,33.5,0.5,50.8,0.8c8.7,0.1,17.3,0.2,25.8,0.3c8.5,0.1,16.9,0.2,25,0.4
			c8.1,0.3,15.9,0.6,23.4,1.1c3.7,0.2,7.3,0.4,10.8,0.6c3.5,0.3,6.9,0.5,10.1,0.7c3.2,0.2,6.3,0.5,9.3,0.7c3,0.3,5.8,0.5,8.4,0.7
			c2.6,0.2,5.1,0.5,7.4,0.7c2.3,0.2,4.4,0.5,6.3,0.7c3.8,0.4,6.7,0.8,8.8,1c2,0.3,3.1,0.4,3.1,0.4l0,0.8c0,0-1.1,0.1-3.1,0.2
			c-2,0.1-5,0.3-8.8,0.4c-1.9,0.1-4,0.2-6.3,0.2c-2.3,0.1-4.8,0.1-7.4,0.2c-2.6,0.1-5.4,0.1-8.4,0.2c-3,0.1-6.1,0.1-9.3,0.1
			c-3.2,0-6.6,0-10.1,0c-3.5,0-7.1-0.1-10.8-0.1c-7.4,0-15.3-0.2-23.4-0.5c-8.1-0.3-16.5-0.7-25-1.3c-8.5-0.5-17.1-0.9-25.8-1.4
			c-17.3-0.9-34.6-1.8-50.8-2.6c-8.1-0.4-15.9-0.8-23.4-1.2c-7.4-0.4-14.4-0.8-20.9-1.2c-13-0.7-23.8-1.3-31.3-1.8
			c-7.6-0.4-11.9-0.7-11.9-0.7L104.9,158.4z"/>
	</g>
	<g>
		<path fill="#FFFFFF" d="M105.5,172.1c0,0,4.3,0.1,11.9,0.2c7.6,0.1,18.4,0.3,31.4,0.5c6.5,0.1,13.5,0.2,21,0.4
			c7.4,0.2,15.3,0.3,23.4,0.5c16.2,0.4,33.5,0.7,50.8,1.1c8.7,0.2,17.3,0.3,25.8,0.5c8.5,0.1,16.9,0.3,25,0.6
			c8.1,0.3,15.9,0.7,23.4,1.2c3.7,0.2,7.3,0.5,10.8,0.7c3.5,0.3,6.9,0.5,10.1,0.8c3.2,0.2,6.3,0.5,9.3,0.8c2.9,0.3,5.7,0.5,8.4,0.8
			c2.6,0.3,5.1,0.5,7.4,0.7c2.3,0.3,4.4,0.5,6.2,0.7c3.8,0.4,6.7,0.8,8.8,1.1c2,0.3,3.1,0.4,3.1,0.4l0,0.8c0,0-1.1,0.1-3.1,0.2
			c-2,0.1-5,0.3-8.8,0.4c-1.9,0.1-4,0.1-6.3,0.2c-2.3,0.1-4.8,0.1-7.4,0.2c-2.6,0.1-5.4,0.1-8.4,0.1c-3,0-6.1,0.1-9.3,0.1
			c-3.2,0-6.6,0-10.1,0c-3.5,0-7.1-0.1-10.8-0.1c-7.4-0.1-15.3-0.3-23.4-0.6c-8.1-0.4-16.5-0.8-25-1.4c-8.5-0.5-17.1-1-25.8-1.6
			c-17.3-1-34.6-2-50.8-2.9c-8.1-0.5-15.9-0.9-23.4-1.3c-7.4-0.5-14.4-0.9-20.9-1.3c-13-0.8-23.8-1.5-31.3-1.9
			c-7.6-0.5-11.9-0.8-11.9-0.8L105.5,172.1z"/>
	</g>
	<g>
		<path fill="#FFFFFF" d="M106.2,185.8c0,0,4.3,0.1,11.9,0.2c7.6,0.2,18.4,0.4,31.4,0.7c6.5,0.1,13.5,0.3,21,0.5
			c7.4,0.2,15.3,0.4,23.4,0.6c16.2,0.5,33.5,0.9,50.8,1.4c8.7,0.2,17.3,0.4,25.8,0.6c8.5,0.2,16.9,0.4,25,0.7
			c8.1,0.4,15.9,0.8,23.3,1.4c3.7,0.3,7.3,0.5,10.8,0.8c3.5,0.3,6.9,0.6,10.1,0.8c3.2,0.3,6.3,0.6,9.3,0.8c2.9,0.3,5.7,0.5,8.4,0.8
			c2.6,0.3,5.1,0.5,7.4,0.8c2.3,0.3,4.4,0.5,6.2,0.7c3.8,0.5,6.7,0.8,8.7,1.1c2,0.3,3.1,0.4,3.1,0.4l0,0.8c0,0-1.1,0.1-3.1,0.2
			c-2,0.1-5,0.2-8.8,0.3c-1.9,0.1-4,0.1-6.3,0.2c-2.3,0-4.8,0.1-7.4,0.1c-2.6,0.1-5.4,0-8.4,0.1c-3,0-6.1,0-9.3,0
			c-3.2,0-6.6,0-10.1-0.1c-3.5-0.1-7.1-0.1-10.8-0.2c-7.4-0.1-15.3-0.4-23.4-0.8c-8.1-0.4-16.5-0.9-25-1.5
			c-8.5-0.6-17.1-1.1-25.8-1.7c-17.3-1.1-34.5-2.2-50.7-3.2c-8.1-0.5-15.9-1-23.3-1.5c-7.4-0.5-14.4-1-20.9-1.4
			c-13-0.9-23.7-1.6-31.3-2.1c-7.6-0.5-11.9-0.8-11.9-0.8L106.2,185.8z"/>
	</g>
	<g>
		<path fill="#FFFFFF" d="M106.8,199.5c0,0,4.3,0.1,11.9,0.3c7.6,0.2,18.4,0.5,31.4,0.9c6.5,0.2,13.5,0.4,21,0.6
			c7.4,0.2,15.3,0.5,23.4,0.8c16.2,0.5,33.5,1.1,50.8,1.7c8.7,0.3,17.3,0.5,25.8,0.8c8.5,0.2,16.9,0.5,25,0.9
			c8.1,0.4,15.9,0.9,23.3,1.5c3.7,0.3,7.3,0.6,10.8,0.8c3.5,0.3,6.9,0.6,10.1,0.9c3.2,0.3,6.3,0.6,9.3,0.9c2.9,0.3,5.7,0.6,8.4,0.9
			c2.6,0.3,5.1,0.6,7.4,0.8c2.3,0.3,4.4,0.5,6.2,0.8c3.8,0.5,6.7,0.9,8.7,1.2c2,0.3,3.1,0.5,3.1,0.5l0,0.8c0,0-1.1,0-3.1,0.1
			c-2,0.1-5,0.2-8.8,0.3c-1.9,0-4,0.1-6.3,0.1c-2.3,0-4.8,0-7.4,0.1c-2.6,0-5.4,0-8.4,0c-3,0-6.1,0-9.3-0.1c-3.2,0-6.6-0.1-10.1-0.1
			c-3.5-0.1-7.1-0.2-10.8-0.3c-7.4-0.2-15.3-0.5-23.4-0.9c-8.1-0.4-16.5-1-25-1.7c-8.5-0.6-17.1-1.2-25.8-1.9
			c-17.3-1.2-34.5-2.4-50.7-3.5c-8.1-0.6-15.9-1.1-23.3-1.6c-7.4-0.5-14.4-1.1-20.9-1.5c-12.9-1-23.7-1.8-31.3-2.3
			c-7.6-0.6-11.9-0.9-11.9-0.9L106.8,199.5z"/>
	</g>
	<g>
		<path fill="#FFFFFF" d="M107.4,213.2c0,0,4.3,0.1,11.9,0.4c7.6,0.3,18.4,0.6,31.4,1.1c6.5,0.2,13.5,0.5,20.9,0.7
			c7.4,0.3,15.3,0.6,23.4,0.9c16.2,0.6,33.5,1.3,50.8,2c8.6,0.3,17.3,0.6,25.8,0.9c8.5,0.3,16.9,0.6,25,1c8.1,0.5,15.9,1,23.3,1.6
			c3.7,0.3,7.3,0.6,10.8,0.9c3.5,0.3,6.9,0.7,10.1,1c3.2,0.3,6.3,0.6,9.3,0.9c2.9,0.3,5.7,0.6,8.4,0.9c2.6,0.3,5.1,0.6,7.3,0.9
			c2.3,0.3,4.4,0.6,6.2,0.8c3.8,0.5,6.7,0.9,8.7,1.2c2,0.3,3.1,0.5,3.1,0.5l0,0.8c0,0-1.1,0-3.1,0.1c-2,0.1-5,0.2-8.8,0.2
			c-1.9,0-4,0.1-6.3,0.1c-2.3,0-4.8,0-7.4,0c-2.6,0-5.4,0-8.4,0c-3,0-6.1,0-9.3-0.1c-3.2-0.1-6.6-0.1-10.1-0.2
			c-3.5-0.1-7.1-0.2-10.8-0.3c-7.4-0.2-15.3-0.6-23.4-1c-8.1-0.5-16.5-1.1-24.9-1.8c-8.5-0.7-17.1-1.3-25.7-2
			c-17.3-1.3-34.5-2.6-50.7-3.8c-8.1-0.6-15.9-1.2-23.3-1.8c-7.4-0.6-14.4-1.1-20.9-1.7c-12.9-1-23.7-1.9-31.3-2.5
			c-7.5-0.6-11.9-1-11.9-1L107.4,213.2z"/>
	</g>
	<g>
		<path fill="#FFFFFF" d="M108,226.9c0,0,4.3,0.2,11.9,0.4c7.6,0.3,18.4,0.7,31.4,1.3c6.5,0.3,13.5,0.6,20.9,0.9
			c7.4,0.3,15.3,0.7,23.4,1c16.2,0.7,33.5,1.5,50.8,2.3c8.6,0.4,17.3,0.7,25.8,1.1c8.5,0.3,16.9,0.7,25,1.2
			c8.1,0.5,15.9,1.1,23.3,1.8c3.7,0.3,7.3,0.7,10.8,1c3.5,0.4,6.8,0.7,10.1,1c3.2,0.3,6.3,0.7,9.3,1c2.9,0.3,5.7,0.6,8.4,1
			c2.6,0.3,5.1,0.6,7.3,0.9c2.3,0.3,4.3,0.6,6.2,0.8c3.8,0.5,6.7,1,8.7,1.3c2,0.3,3.1,0.5,3.1,0.5l-0.1,0.8c0,0-1.1,0-3.1,0.1
			c-2,0.1-5,0.1-8.8,0.2c-1.9,0-4,0-6.3,0.1c-2.3,0-4.8,0-7.4,0c-2.6,0-5.4-0.1-8.4-0.1c-3,0-6.1-0.1-9.3-0.2
			c-3.2-0.1-6.6-0.2-10.1-0.3c-3.5-0.1-7.1-0.3-10.8-0.4c-7.4-0.2-15.3-0.7-23.4-1.2c-8.1-0.5-16.5-1.2-24.9-2
			c-8.5-0.7-17.1-1.4-25.7-2.2c-17.3-1.4-34.5-2.8-50.7-4.1c-8.1-0.7-15.9-1.3-23.3-1.9c-7.4-0.6-14.4-1.2-20.9-1.8
			c-12.9-1.1-23.7-2-31.3-2.7c-7.5-0.7-11.9-1.1-11.9-1.1L108,226.9z"/>
	</g>
	<g>
		<path fill="#FFFFFF" d="M108.6,240.6c0,0,4.3,0.2,11.9,0.5c7.6,0.3,18.4,0.8,31.3,1.4c6.5,0.3,13.5,0.6,20.9,1
			c7.4,0.4,15.3,0.8,23.4,1.2c16.2,0.8,33.5,1.7,50.8,2.6c8.6,0.4,17.3,0.8,25.8,1.2c8.5,0.4,16.9,0.8,25,1.3
			c8.1,0.6,15.9,1.2,23.3,1.9c3.7,0.4,7.3,0.7,10.8,1c3.5,0.4,6.8,0.7,10.1,1.1c3.2,0.3,6.3,0.7,9.3,1.1c2.9,0.4,5.7,0.7,8.4,1
			c2.6,0.3,5.1,0.7,7.3,1c2.3,0.3,4.3,0.6,6.2,0.9c3.8,0.5,6.7,1,8.7,1.3c2,0.3,3.1,0.5,3.1,0.5l-0.1,0.8c0,0-1.1,0-3.1,0.1
			c-2,0.1-5,0.1-8.8,0.1c-1.9,0-4,0-6.3,0c-2.3,0-4.8,0-7.4-0.1c-2.6,0-5.4-0.1-8.4-0.1c-3-0.1-6.1-0.1-9.3-0.2
			c-3.2-0.1-6.6-0.2-10.1-0.3c-3.5-0.1-7.1-0.3-10.8-0.5c-7.4-0.3-15.3-0.8-23.4-1.3c-8.1-0.6-16.4-1.3-24.9-2.1
			c-8.5-0.8-17.1-1.5-25.7-2.3c-17.2-1.5-34.5-3-50.7-4.4c-8.1-0.7-15.9-1.4-23.3-2c-7.4-0.7-14.4-1.3-20.9-1.9
			c-12.9-1.2-23.7-2.2-31.2-2.9c-7.5-0.7-11.9-1.1-11.9-1.1L108.6,240.6z"/>
	</g>
	<g>
		<path fill="#FFFFFF" d="M109.3,254.3c0,0,4.3,0.2,11.9,0.6c7.6,0.4,18.4,1,31.3,1.6c6.5,0.3,13.5,0.7,20.9,1.1
			c7.4,0.4,15.3,0.9,23.4,1.3c16.2,0.9,33.5,1.9,50.8,2.9c8.6,0.5,17.3,0.9,25.8,1.4c8.5,0.4,16.9,0.9,25,1.4
			c8.1,0.6,15.9,1.3,23.3,2c3.7,0.4,7.3,0.7,10.8,1.1c3.5,0.4,6.8,0.8,10.1,1.1c3.2,0.4,6.3,0.7,9.3,1.1c2.9,0.4,5.7,0.7,8.3,1.1
			c2.6,0.4,5.1,0.7,7.3,1c2.3,0.3,4.3,0.6,6.2,0.9c3.8,0.6,6.7,1,8.7,1.4c2,0.3,3.1,0.5,3.1,0.5l-0.1,0.8c0,0-1.1,0-3.1,0.1
			c-2,0-5,0.1-8.8,0.1c-1.9,0-4,0-6.3,0c-2.3,0-4.8-0.1-7.4-0.1c-2.6,0-5.4-0.1-8.4-0.2c-3-0.1-6.1-0.1-9.3-0.3
			c-3.2-0.1-6.6-0.2-10.1-0.4c-3.5-0.2-7.1-0.3-10.8-0.5c-7.4-0.3-15.3-0.9-23.4-1.4c-8.1-0.6-16.4-1.4-24.9-2.3
			c-8.5-0.8-17.1-1.6-25.7-2.5c-17.2-1.6-34.5-3.2-50.6-4.7c-8.1-0.8-15.9-1.5-23.3-2.2c-7.4-0.7-14.4-1.4-20.9-2
			c-12.9-1.3-23.7-2.3-31.2-3.1c-7.5-0.8-11.8-1.2-11.8-1.2L109.3,254.3z"/>
	</g>
	<path fill="#FFFFFF" d="M363.4,126.3c0,1.7-1.4,3-3.1,2.9l-72.5-1.5c-1.7,0-3-1.4-2.9-3.1l0.4-20.5c0-1.7,1.4-3,3.1-2.9l72.5,1.5
		c1.7,0,3,1.4,2.9,3.1L363.4,126.3z"/>
	<path d="M357.9,118.1c0,0.7-0.6,1.3-1.3,1.3l-31.9-0.7c-0.7,0-1.3-0.6-1.3-1.3l0.2-9c0-0.7,0.6-1.3,1.3-1.3l31.9,0.7
		c0.7,0,1.3,0.6,1.3,1.3L357.9,118.1z"/>
	<circle fill="#FFFFFF" cx="330.3" cy="112.6" r="3.1"/>
</g>
</svg>
