<?xml version="1.0" encoding="utf-8"?>
<!-- Generator: Adobe Illustrator 17.1.0, SVG Export Plug-In . SVG Version: 6.00 Build 0)  -->
<!DOCTYPE svg PUBLIC "-//W3C//DTD SVG 1.1//EN" "http://www.w3.org/Graphics/SVG/1.1/DTD/svg11.dtd">
<svg version="1.1" id="Layer_1" xmlns="http://www.w3.org/2000/svg" xmlns:xlink="http://www.w3.org/1999/xlink" x="0px" y="0px"
	 viewBox="0 0 550 367" enable-background="new 0 0 550 367" xml:space="preserve">
<g>
	<path d="M387.9,163.5c-0.1,45.2-0.1,90.3-0.2,135.5c0,10.3-0.8,20.6-0.8,30.9c0,1.5-1.1,2.6-2.9,3.5c-1.1,5.4-5.9,9.5-11.7,9.5
		c-4.7,0-8.8-2.7-10.7-6.7c-57.3-0.3-114.6-0.5-171.9-0.6c-1.8,4.3-6,7.3-11,7.3c-5,0-9.3-3.1-11.1-7.5c-0.7-0.1-1.2-0.3-1.6-0.5
		c-0.9-0.5-1.1-2.9-1.1-4.5c-0.1-12.5-0.1-25-0.2-37.5c-0.2-26.8-0.8-53.6-0.8-80.4c0-25.5,0.8-50.9,0.8-76.4
		c0-19.8-0.8-39.6-0.9-59.4c-0.1-10.8,0.4-21.6,1.1-32.4c0.2-2.3,2.7-4.4,4.1-6.6c0.1-0.1,0.3-0.1,0.4-0.2c9.7-6.6,20.3-8.4,32-8
		c24.8,0.7,49.6,0.2,74.5,0.2v-0.2c27,0,54,0.1,81-0.1c6.7-0.1,12.3,1.8,18.4,4.5c9.4,4.2,13.1,9.7,12.9,20.3
		C387.5,90.7,387.9,127.1,387.9,163.5z"/>
	<path fill="#FFFFFF" d="M275.3,102.7c-44.2,0-80,34.8-80,77.7c0,42.9,35.8,77.7,80,77.7c44.2,0,80-34.8,80-77.7
		C355.3,137.4,319.5,102.7,275.3,102.7z M275.3,243.7c-36,0-65.2-28.4-65.2-63.3c0-35,29.2-63.3,65.2-63.3c36,0,65.2,28.4,65.2,63.3
		C340.5,215.3,311.3,243.7,275.3,243.7z"/>
	<path fill="none" stroke="#FFFFFF" stroke-width="2" stroke-miterlimit="10" d="M340.5,180.3c0,35-29.2,63.3-65.2,63.3
		c-36,0-65.2-28.4-65.2-63.3c0-35,29.2-63.3,65.2-63.3C311.3,117,340.5,145.4,340.5,180.3z"/>
	<path fill="#FFFFFF" d="M318.7,214.6c-10.3,12.2-25.9,20.1-43.4,20.1c-30.9,0-56-24.3-56-54.3c0-30,25.1-54.3,56-54.3
		c17.5,0,33.2,7.8,43.4,20.1c0,0-1.6,11.3-2.3,29.6C315.8,194,318.7,214.6,318.7,214.6z"/>
	<path fill="none" stroke="#FFFFFF" stroke-width="2" stroke-miterlimit="10" d="M331.2,180.2c0,12.5-4.7,24-12.5,33
		c0,0-2.9-19.9-2.3-37.5c0.7-17.7,2.3-28.5,2.3-28.5C326.5,156.2,331.2,167.6,331.2,180.2z"/>
	<path fill="none" stroke="#FFFFFF" stroke-width="2" stroke-miterlimit="10" d="M340.5,180.3c0,35-29.2,63.3-65.2,63.3
		c-36,0-65.2-28.4-65.2-63.3c0-35,29.2-63.3,65.2-63.3C311.3,117,340.5,145.4,340.5,180.3z"/>
	<circle fill="#FFFFFF" cx="349.1" cy="72.5" r="5.9"/>
	<circle fill="none" stroke="#FFFFFF" stroke-miterlimit="10" cx="349.1" cy="72.5" r="12.6"/>
	<circle fill="none" stroke="#FFFFFF" stroke-miterlimit="10" cx="264.3" cy="85.3" r="3.7"/>
	<circle fill="none" stroke="#FFFFFF" stroke-miterlimit="10" cx="274.3" cy="85.3" r="3.7"/>
	<circle fill="none" stroke="#FFFFFF" stroke-miterlimit="10" cx="284.3" cy="85.3" r="3.7"/>
	<line fill="none" stroke="#FFFFFF" stroke-miterlimit="10" x1="166.9" y1="39.2" x2="382.6" y2="39.2"/>
	<g>
		<path fill="#FFFFFF" d="M164.1,98.2c0,0,55.2-0.2,110.4-0.3c13.8,0,27.6-0.1,40.5-0.1c6.5,0,12.7,0,18.6,0
			c5.9,0,11.5,0.1,16.7,0.1c10.3,0.1,19,0.1,25,0.2c6,0.1,9.5,0.1,9.5,0.1v0.1c0,0-3.4,0-9.5,0.1c-6,0.1-14.7,0.1-25,0.2
			c-5.2,0-10.8,0.1-16.7,0.1c-5.9,0.1-12.2,0-18.6,0c-12.9,0-26.7-0.1-40.5-0.1c-55.2-0.2-110.4-0.3-110.4-0.3V98.2z"/>
	</g>
	<g>
		<path fill="#FFFFFF" d="M244.7,49.8c0,0,0.2,10.7,0.4,21.4c0,2.7,0.1,5.3,0.1,7.8c0,1.3,0,2.5,0,3.6c0,1.1-0.1,2.2-0.1,3.2
			c0,1-0.1,1.9-0.1,2.7c0,0.8-0.1,1.5-0.1,2.1c-0.1,1.2-0.1,1.8-0.1,1.8h-0.1c0,0,0-0.7-0.1-1.8c0-0.6-0.1-1.3-0.1-2.1
			c0-0.8-0.1-1.7-0.1-2.7c0-1-0.1-2.1-0.1-3.2c0-1.1,0-2.4,0-3.6c0-2.5,0.1-5.2,0.1-7.8C244.3,60.4,244.6,49.8,244.7,49.8
			L244.7,49.8z"/>
	</g>
	<g>
		<g>
			<path fill="#FFFFFF" d="M177.7,70.1l51.1,0.3l0.2,0l0,0.2L229,81.3c-0.1,0.9-0.3,1.8-0.9,2.6c-0.3,0.4-0.6,0.7-1,0.9
				c-0.2,0.1-0.4,0.2-0.7,0.2l-0.7,0.1c-0.9,0.1-1.8,0.2-2.7,0.3l-2.7,0.2c-3.6,0.2-7.2,0.3-10.7,0.4c-3.6,0.1-7.2,0.1-10.7,0.1
				c3.6,0,7.2,0,10.7-0.2c3.6-0.1,7.2-0.3,10.7-0.5c1.8-0.1,3.6-0.3,5.3-0.5l0.7-0.1c0.2-0.1,0.4-0.1,0.6-0.2
				c0.4-0.2,0.7-0.5,0.9-0.8c0.5-0.7,0.7-1.6,0.8-2.4l-0.1-10.7l0.2,0.2l-51.1,0.3V70.1z"/>
		</g>
		<g>
			<path fill="#FFFFFF" d="M228.9,71.1l-51.1-0.3l0.2-0.2l-0.1,8.6l0,2.1c0.1,0.7,0.2,1.4,0.6,2c0.3,0.6,0.8,1.2,1.5,1.4
				c0.6,0.2,1.4,0.2,2.1,0.4c1.4,0.1,2.9,0.2,4.3,0.4l4.3,0.3c1.4,0.1,2.9,0.1,4.3,0.2l4.3,0.2l-4.3-0.1c-1.4,0-2.9-0.1-4.3-0.1
				l-4.3-0.2c-1.4-0.1-2.9-0.2-4.3-0.3c-0.7-0.1-1.4-0.1-2.1-0.3c-0.7-0.2-1.3-0.8-1.6-1.5c-0.3-0.7-0.5-1.4-0.6-2.1l0-2.2l-0.1-8.6
				l0-0.2l0.2,0l51.1-0.3V71.1z"/>
		</g>
	</g>
	<g>
		<path fill="none" stroke="#FFFFFF" stroke-miterlimit="10" d="M384.9,92.5H164.1c0,0-2.3,0.4-2.3-3.5"/>
		<path fill="none" stroke="#FFFFFF" stroke-miterlimit="10" d="M384.9,92.5c0,0,2.3,0.4,2.3-3.5"/>
	</g>
</g>
</svg>
