<?xml version="1.0" encoding="utf-8"?>
<!-- Generator: Adobe Illustrator 18.0.0, SVG Export Plug-In . SVG Version: 6.00 Build 0)  -->
<!DOCTYPE svg PUBLIC "-//W3C//DTD SVG 1.1//EN" "http://www.w3.org/Graphics/SVG/1.1/DTD/svg11.dtd">
<svg version="1.1" id="Layer_1" xmlns="http://www.w3.org/2000/svg" xmlns:xlink="http://www.w3.org/1999/xlink" x="0px" y="0px"
	 viewBox="0 0 120.7 102.5" enable-background="new 0 0 120.7 102.5" xml:space="preserve">
<g>
	<g>
		<path fill="#BCB363" d="M36.7,93.7c0.9-3.6,0.2-9.8,0.2-9.8l-12,0.4c0,0-2.7,6.5-2,10.8"/>
		<path fill="#736458" d="M36.6,93.7c0.1-0.4,0.1-0.8,0.1-1.2c0-0.4,0.1-0.8,0.1-1.2c0-0.8,0-1.6,0-2.4c0-0.8-0.1-1.6-0.1-2.4
			c0-0.8-0.1-1.6-0.1-2.4l0.2,0.2c-1,0-2,0-3,0c-1,0-2,0.1-3,0.1c-2,0.2-4,0.3-6,0.4l0.3-0.2c-0.6,1.7-1.2,3.5-1.6,5.2
			c-0.2,0.9-0.4,1.8-0.5,2.7c0,0.2,0,0.5-0.1,0.7c0,0.2,0,0.5,0,0.7c0,0.5,0,0.9,0,1.4l-0.1,0c-0.1-0.5-0.2-0.9-0.2-1.4
			c0-0.2,0-0.5,0-0.7c0-0.2,0-0.5,0-0.7c0-0.9,0.2-1.9,0.3-2.8c0.3-1.8,0.9-3.6,1.6-5.4l0.1-0.2l0.2,0c2,0,4,0,6,0c1,0,2,0,3,0
			c1,0,2-0.1,3-0.2l0.2,0l0,0.2c0.3,1.6,0.4,3.3,0.3,4.9c0,0.8-0.1,1.7-0.2,2.5C37.1,92.1,37,93,36.6,93.7L36.6,93.7z"/>
	</g>
	<g>
		<g>
			<path fill="#DCAC8F" d="M46.8,98.9c-9-4.1-12.4-7.4-12.4-8.1v-7.3h-8v7.2c0,0-2.4,3.6-12.5,8.2c-0.9,0.4-1.6,2.6-1.7,3.1l36.4,0
				C48.3,101.5,47.7,99.3,46.8,98.9z"/>
			<path fill="#736458" d="M46.6,98.9c-1.1-0.5-2.3-1-3.4-1.6c-1.1-0.5-2.3-1.1-3.4-1.7c-1.1-0.6-2.2-1.3-3.2-2
				c-1-0.7-2.2-1.6-3-2.5L33.3,91v-0.1v-7.7l0.7,0.4h-7.2l0.5-0.4v7.6v0.1l-0.1,0.1c-0.3,0.4-0.6,0.6-0.9,0.9
				c-0.3,0.3-0.6,0.5-0.9,0.8c-0.6,0.5-1.3,1-1.9,1.5c-1.3,0.9-2.7,1.8-4,2.5c-1.4,0.8-2.8,1.5-4.2,2.2c-0.3,0.2-0.8,0.3-1,0.5
				c-0.2,0.1-0.5,0.5-0.6,0.8c-0.2,0.3-0.4,0.7-0.5,1c-0.1,0.3-0.3,0.7-0.4,1.1l-0.4-0.5l18.1,0l9.1,0c1.5,0,3,0.1,4.5,0.1l4.5,0.2
				l-0.1,0.1c-0.1-0.6-0.4-1.2-0.7-1.7c-0.1-0.3-0.3-0.5-0.5-0.8C47.1,99.3,46.9,99,46.6,98.9z M46.6,98.9c0.3,0.1,0.5,0.4,0.7,0.6
				c0.2,0.2,0.3,0.5,0.5,0.8c0.3,0.5,0.5,1.1,0.7,1.7l0,0.1l-0.1,0l-4.5,0.2c-1.5,0.1-3,0.1-4.5,0.1l-9.1,0.1l-18.1,0.1h-0.5
				l0.1-0.5c0.1-0.4,0.3-0.8,0.4-1.2c0.2-0.4,0.3-0.8,0.6-1.1c0.2-0.4,0.4-0.7,0.9-1c0.4-0.2,0.7-0.4,1.1-0.5
				c1.4-0.7,2.8-1.4,4.2-2.1c1.4-0.8,2.7-1.6,4-2.5c0.6-0.4,1.3-0.9,1.8-1.4c0.3-0.2,0.6-0.5,0.9-0.8c0.3-0.3,0.5-0.6,0.7-0.8
				l-0.1,0.2v-7.6v-0.6h0.5H34h0.3v0.6v7.7l0-0.2c0.8,0.9,1.8,1.7,2.7,2.5c1,0.8,2,1.5,3,2.2c1,0.7,2.1,1.3,3.2,1.9
				C44.4,97.8,45.5,98.4,46.6,98.9z"/>
		</g>
		<g>
			<path fill="#59805C" stroke="#736458" stroke-width="0.7263" stroke-miterlimit="10" d="M20,95.9c0,2.3,1,4.5,2.6,6.1l-10.3,0
				c0.1-0.5,0.9-2.7,1.8-3.1C16.4,97.8,18.4,96.8,20,95.9z"/>
			<path fill="#59805C" stroke="#736458" stroke-width="0.7263" stroke-miterlimit="10" d="M38,102c1.6-1.6,2.6-3.8,2.6-6.2
				c0,0,0,0,0-0.1c1.6,1,3.7,2,6.1,3.1c0.9,0.4,1.7,2.6,1.8,3.1L38,102z"/>
		</g>
	</g>
	<g>
		<path fill="#4B7691" d="M110.6,102.1l-6.3,0L70.2,102l-5.5,0c0,0,0.4-1.7,1.7-3c0.5-0.4,2.4-1.5,4.7-2.6c3.7-1.8,8.3-3.9,9.3-4.4
			c0,0,0,0,0,0c0.2,0,0.3-0.1,0.5-0.1c0,0,0,0,0,0c0,0,0,0,0,0c0.2-0.4-0.7-0.9-0.4-1.7s2.2-0.5,2.2-0.5l0.1,1.9
			c1.7-0.2,2.3-0.2,4-0.2c1.7,0,3.5,0.1,4.5,0.3v-1.6c0,0,2-0.4,2.3,0.4c0.2,0.7-0.2,1.2-0.2,1.5c0.3,0,0.6,0.1,0.8,0.2
			c0.2,0,0.4,0.1,0.7,0.1c1,0.5,4.7,2.1,8,3.7c2.8,1.3,5.4,2.7,5.9,3.2C110.2,100.4,110.6,102.1,110.6,102.1z"/>
		<path fill="#544841" d="M110.6,102.1l-11.5,0.3c-1,0-1.9,0-2.9,0l-2.9,0l-5.7,0l-23-0.1l-0.5,0l0.1-0.4c0.1-0.4,0.3-0.8,0.4-1.2
			c0.2-0.4,0.4-0.7,0.6-1.1c0.2-0.3,0.5-0.7,0.9-1c0.4-0.3,0.7-0.5,1.1-0.7c1.4-0.8,2.8-1.5,4.3-2.2l8.7-4l0.1,0
			c-0.1,0-0.2,0-0.2,0.1l0.2-0.1l0.3-0.1l0.1,0l0.1,0l0,0c0,0,0,0,0,0l0,0L80.6,92l0,0l0.1-0.2c0,0,0,0.1,0,0.1c0,0,0-0.1-0.1-0.2
			c-0.1-0.1-0.2-0.3-0.3-0.5c-0.1-0.2-0.2-0.4-0.1-0.7c0-0.1,0-0.2,0.1-0.4c0,0,0-0.1,0.1-0.1c0-0.1,0.1-0.1,0.2-0.2
			c0.4-0.3,0.8-0.3,1.2-0.4c0.4,0,0.7,0,1.1,0l0.3,0l0,0.3l0.1,1.9l-0.4-0.3c1.5-0.2,3-0.3,4.4-0.3c1.5,0,3,0.1,4.5,0.3l-0.3,0.4
			v-1.6v-0.3l0.2-0.1c0.3-0.1,0.6-0.1,1-0.1c0.4,0,0.7,0,1.1,0.2c0.1,0.1,0.2,0.1,0.3,0.3c0.1,0.1,0.1,0.3,0.1,0.3
			c0,0.1,0,0.2,0,0.3c0,0.1,0,0.2,0,0.3c0,0.2-0.1,0.4-0.2,0.5c-0.1,0.2-0.1,0.3-0.1,0.3l-0.3-0.4c0.5,0.1,1,0.2,1.5,0.3l0,0l0,0
			l4.3,2c1.4,0.7,2.9,1.4,4.3,2.1c1.4,0.7,2.8,1.5,4.2,2.3c0.3,0.2,0.7,0.4,1,0.7c0.3,0.3,0.6,0.6,0.8,0.9
			C110.1,100.6,110.4,101.4,110.6,102.1z M110.6,102.1c-0.2-0.8-0.6-1.5-1.1-2.1c-0.2-0.3-0.5-0.6-0.8-0.9c-0.3-0.2-0.7-0.4-1-0.6
			c-1.4-0.7-2.8-1.4-4.3-2.1c-1.4-0.7-2.9-1.2-4.4-1.9l-4.3-2l0.1,0c-0.5-0.1-1-0.2-1.5-0.3l-0.3-0.1l0-0.3c0-0.3,0.1-0.4,0.2-0.6
			c0.1-0.1,0.1-0.3,0.1-0.4c0-0.1,0-0.1,0-0.2c0-0.1,0-0.1,0-0.2c0-0.1,0-0.1,0-0.1c0,0,0,0-0.1-0.1c-0.2-0.1-0.5-0.1-0.8-0.1
			c-0.3,0-0.4,0-0.7,0.1l0.5-0.4v1.6v0.4l-0.6-0.1c-1.4-0.2-3-0.3-4.4-0.3c-1.5,0-2.9,0.1-4.4,0.2l-0.4,0.1l0-0.4l-0.1-1.9l0.3,0.3
			c-0.3,0-0.7,0-1,0c-0.3,0-0.6,0.1-0.8,0.2c0,0,0,0,0,0c0,0,0,0.1-0.1,0.1c0,0,0,0.1,0,0.1c0,0.1,0,0.2,0.1,0.3
			c0.1,0.1,0.1,0.3,0.2,0.4c0,0.1,0.1,0.2,0.1,0.3c0,0.1,0.1,0.4,0,0.6l0.1-0.2l0,0l0.4,0.2L81,92.4l-0.5,0.1l0.2-0.1
			c-0.1,0.1-0.2,0.1-0.2,0.1l0.1,0l-8.7,4c-1.4,0.7-2.9,1.4-4.2,2.2c-0.3,0.2-0.7,0.4-0.9,0.6c-0.3,0.2-0.5,0.5-0.7,0.8
			c-0.4,0.6-0.8,1.3-1,2l-0.4-0.4l23,0l5.7-0.1h2.9c1,0,1.9,0.1,2.9,0.2L110.6,102.1z"/>
	</g>
	<g>
		<g>
			<path fill="#B41E40" d="M81.3,102l-6.3,0l-34.1-0.1l-5.5,0c0,0,0.4-1.7,1.7-3c0.5-0.4,2.4-1.5,4.7-2.6c3.7-1.8,8.3-3.9,9.3-4.4
				c0,0,0,0,0,0c0.2,0,0.3-0.1,0.5-0.1c0,0,0,0,0,0c0,0,0,0,0,0c0.2-0.4-0.7-0.9-0.4-1.7c0.2-0.8,2.2-0.5,2.2-0.5l0.1,1.9
				c1.7-0.2,2.5-0.2,4.2-0.2c1.7,0,2.7,0.1,4.7,0.3V90c0,0,1.9-0.4,2.1,0.4c0.2,0.7-0.3,1.2-0.3,1.5c0.3,0,0.5,0.1,0.8,0.2
				c0.2,0,0.4,0.1,0.6,0.1c1,0.5,4.7,2.1,8,3.7c2.8,1.3,5.4,2.7,5.9,3.2C80.9,100.3,81.3,102,81.3,102z"/>
			<path fill="#736458" d="M81.3,102l-11.5,0.3c-1,0-1.9,0-2.9,0l-2.9,0l-5.7,0l-23-0.1l-0.5,0l0.1-0.4c0.1-0.4,0.3-0.8,0.4-1.2
				c0.2-0.4,0.4-0.7,0.6-1.1c0.2-0.3,0.5-0.7,0.9-1c0.4-0.3,0.7-0.5,1.1-0.7c1.4-0.8,2.8-1.5,4.3-2.2l8.7-4l0.1,0
				c-0.1,0-0.2,0-0.2,0.1l0.2-0.1l0.3-0.1l0.1,0l0.1,0l0,0c0,0,0,0,0,0l0,0l-0.3,0.4l0,0l0.1-0.2c0,0,0,0.1,0,0.1c0,0,0-0.1-0.1-0.2
				c-0.1-0.1-0.2-0.3-0.3-0.5c-0.1-0.2-0.2-0.4-0.1-0.7c0-0.1,0-0.2,0.1-0.4c0,0,0-0.1,0.1-0.1c0-0.1,0.1-0.1,0.2-0.2
				c0.4-0.3,0.8-0.3,1.2-0.4c0.4,0,0.7,0,1.1,0l0.3,0l0,0.3l0.1,1.9l-0.4-0.3c1.5-0.2,3-0.3,4.4-0.3c1.5,0,2.7,0.1,4.2,0.3l-0.7,0.4
				V90v-0.3l0.5-0.1c0.4-0.1,0.8-0.1,1.2-0.1c0.4,0,0.8,0,1.2,0.2c0.1,0.1,0.2,0.1,0.3,0.3c0.1,0.1,0.2,0.3,0.2,0.3
				c0,0.1,0,0.2,0,0.3c0,0.1,0,0.2,0,0.3c0,0.2-0.1,0.4-0.2,0.5c-0.1,0.2-0.1,0.3-0.1,0.3l-0.3-0.4c0.5,0.1,1,0.2,1.5,0.3l0,0l0,0
				l4.3,2c1.4,0.7,2.9,1.4,4.3,2.1c1.4,0.7,2.8,1.5,4.2,2.3c0.3,0.2,0.7,0.4,1,0.7c0.3,0.3,0.6,0.6,0.8,0.9
				C80.7,100.5,81.1,101.2,81.3,102z M81.3,102c-0.2-0.8-0.6-1.5-1.1-2.1c-0.2-0.3-0.5-0.6-0.8-0.9c-0.3-0.2-0.7-0.4-1-0.6
				c-1.4-0.7-2.8-1.4-4.3-2.1c-1.4-0.7-2.9-1.2-4.4-1.9l-4.3-2l0.1,0c-0.5-0.1-1-0.2-1.5-0.3l-0.3-0.1l0-0.3c0-0.3,0.1-0.4,0.2-0.6
				C64,91.1,64,91,64,90.9c0-0.1,0-0.1,0-0.2c0-0.1,0-0.1,0-0.2c0-0.1,0-0.1,0-0.1c0,0,0,0-0.1-0.1c-0.2-0.1-0.5-0.1-0.8-0.1
				c-0.3,0-0.7,0-1,0.1l0.2-0.4v1.6V92L62,92c-1.4-0.2-2.8-0.3-4.3-0.3c-1.5,0-2.9,0.1-4.3,0.2L53.1,92l0-0.4L53,89.7l0.3,0.3
				c-0.3,0-0.7,0-1,0c-0.3,0-0.6,0.1-0.8,0.2c0,0,0,0,0,0c0,0,0,0.1-0.1,0.1c0,0,0,0.1,0,0.1c0,0.1,0,0.2,0.1,0.3
				c0.1,0.1,0.1,0.3,0.2,0.4c0,0.1,0.1,0.2,0.1,0.3c0,0.1,0.1,0.4,0,0.6l0.1-0.2l0,0l0.4,0.2l-0.7,0.1l-0.5,0.1l0.2-0.1
				c-0.1,0.1-0.2,0.1-0.2,0.1l0.1,0l-8.7,4c-1.4,0.7-2.9,1.4-4.2,2.2c-0.3,0.2-0.7,0.4-0.9,0.6c-0.3,0.2-0.5,0.5-0.7,0.8
				c-0.4,0.6-0.8,1.3-1,2l-0.4-0.4l23,0.1l5.7,0h2.9c1,0,1.9,0.1,2.9,0.1L81.3,102z"/>
		</g>
		<path fill="#B41E40" stroke="#736458" stroke-width="0.7263" stroke-miterlimit="10" d="M51.6,91.8c-0.2,0-0.3,0.1-0.5,0.1
			c0.1-0.1,0.2-0.1,0.2-0.1L51.6,91.8z"/>
		<path fill="#B41E40" stroke="#736458" stroke-width="0.7263" stroke-miterlimit="10" d="M65.6,92.1c-0.2,0-0.4-0.1-0.6-0.1l0.3,0
			C65.3,92,65.4,92,65.6,92.1z"/>
		<g>
			<path fill="#DCAC8F" d="M63.3,84.5V93c0,1.4-2.3,2.6-5,2.6c-2.7,0-5-1.1-5-2.6v-8.5H63.3z"/>
			<path fill="#736458" d="M63,84.5c0.1,1.2,0.2,2.4,0.2,3.6c0.1,1.2,0.1,2.4,0.1,3.6c0,0.3,0,0.6,0,0.9c0,0.2,0,0.3,0,0.5
				c0,0.1-0.1,0.3-0.1,0.5c-0.3,0.7-0.9,1.1-1.4,1.4c-1.2,0.6-2.4,0.7-3.6,0.7c-1.2,0-2.5-0.2-3.6-0.8c-0.6-0.3-1.1-0.7-1.4-1.3
				c-0.1-0.3-0.1-0.7-0.2-1l0-0.9c-0.1-2.4-0.1-4.6-0.1-7l0-0.2h0.4c1.6,0,3.2-0.2,4.9-0.1C59.7,84.5,61.3,84.4,63,84.5L63,84.5
				L63,84.5z M62.9,84.5c-1.6,0.1-3.2,0.2-4.8,0.2c-1.6,0-3.2,0.1-4.9,0.1l0.4-0.4c0,2.4,0,4.8-0.1,7.3l0,0.9c0,0.3,0,0.6,0,0.8
				c0.2,0.5,0.6,0.9,1.1,1.2c0.5,0.3,1.1,0.5,1.7,0.6c0.6,0.1,1.2,0.2,1.8,0.2c1.2,0,2.4-0.3,3.4-0.9c0.5-0.3,0.9-0.7,1.1-1.1
				c0.1-0.4,0-1.1,0.1-1.7c0-1.2,0-2.4,0.1-3.6C62.7,86.9,62.8,85.7,62.9,84.5z"/>
		</g>
		<g>
			<g>
				<path fill="#C99477" d="M66.9,71.3c0,0,0.7-2.9,2.2-2.1c1.5,0.8,2.7,7.6-2.2,8.6"/>
				<path fill="#736458" d="M66.9,71.3c0,0,0-0.2,0.2-0.6c0.1-0.4,0.3-0.9,0.8-1.4c0.2-0.2,0.7-0.4,1.1-0.3c0.1,0,0.2,0.1,0.3,0.1
					c0.1,0.1,0.2,0.1,0.2,0.2c0.1,0.2,0.3,0.3,0.4,0.5c0.2,0.4,0.4,0.8,0.5,1.2c0.1,0.4,0.2,0.9,0.2,1.3c0,0.4,0.1,0.9,0,1.4
					c0,0.4-0.1,0.9-0.3,1.3c-0.1,0.2-0.2,0.4-0.2,0.6c-0.1,0.2-0.2,0.4-0.3,0.5c-0.1,0.2-0.3,0.3-0.4,0.4c-0.1,0.1-0.3,0.3-0.4,0.4
					c-0.1,0.1-0.3,0.2-0.4,0.3c-0.1,0.1-0.3,0.1-0.4,0.2c-0.3,0.1-0.5,0.2-0.7,0.2c-0.4,0.1-0.6,0.1-0.6,0.1l0,0
					c0,0,0.2-0.1,0.6-0.2c0.2-0.1,0.4-0.2,0.6-0.3c0.1-0.1,0.2-0.1,0.3-0.2c0.1-0.1,0.2-0.2,0.3-0.3c0.1-0.1,0.2-0.2,0.3-0.4
					c0.1-0.1,0.2-0.3,0.3-0.4c0.1-0.2,0.2-0.3,0.3-0.5c0.1-0.2,0.1-0.4,0.2-0.5c0.1-0.4,0.2-0.8,0.3-1.2c0.1-0.4,0.1-0.8,0.1-1.3
					c0-0.4-0.1-0.9-0.2-1.3c-0.1-0.4-0.2-0.8-0.4-1.2c-0.1-0.2-0.2-0.3-0.3-0.5c-0.1-0.1-0.1-0.1-0.2-0.2c-0.1-0.1-0.1-0.1-0.2-0.1
					c-0.3-0.1-0.7,0-0.9,0.2c-0.5,0.4-0.7,1-0.9,1.3C67,71.1,66.9,71.3,66.9,71.3L66.9,71.3z"/>
			</g>
			<g>
				<path fill="#C99477" d="M70.1,71c0,0-1.5-1.1-3.3,4"/>
				<path fill="#736458" d="M70.1,71c0,0-0.3-0.2-0.8,0.1c-0.4,0.2-0.9,0.8-1.2,1.4c-0.2,0.3-0.3,0.6-0.4,0.9
					c-0.1,0.3-0.3,0.6-0.4,0.8c-0.2,0.5-0.5,0.8-0.5,0.8l0,0c0,0,0-0.4,0.1-0.9c0.1-0.3,0.2-0.6,0.3-0.9c0.2-0.3,0.3-0.6,0.5-0.9
					c0.4-0.6,0.9-1.2,1.4-1.4C69.8,70.7,70.2,71,70.1,71L70.1,71z"/>
			</g>
		</g>
		<ellipse opacity="0.42" fill="#736458" cx="58.1" cy="87.4" rx="4.8" ry="3.4"/>
		<g>
			<g>
				<path fill="#C99477" d="M48.9,71.1c0,0-0.7-2.9-2.2-2.1c-1.5,0.8-2.7,7.6,2.2,8.6"/>
				<path fill="#736458" d="M48.9,71.1c0,0-0.1-0.2-0.2-0.6c-0.2-0.3-0.4-0.9-0.9-1.3c-0.2-0.2-0.6-0.3-0.9-0.2
					c-0.1,0-0.1,0-0.2,0.1c-0.1,0.1-0.2,0.1-0.2,0.2c-0.1,0.2-0.2,0.3-0.3,0.5c-0.2,0.3-0.3,0.8-0.4,1.2c-0.1,0.4-0.2,0.8-0.2,1.3
					c0,0.4,0,0.9,0.1,1.3c0,0.4,0.2,0.8,0.3,1.2c0.1,0.2,0.1,0.4,0.2,0.5c0.1,0.2,0.2,0.3,0.3,0.5c0.1,0.2,0.2,0.3,0.3,0.4
					c0.1,0.1,0.2,0.3,0.3,0.4c0.1,0.1,0.2,0.2,0.3,0.3c0.1,0.1,0.2,0.2,0.3,0.2c0.2,0.1,0.4,0.3,0.6,0.3c0.4,0.1,0.6,0.2,0.6,0.2
					l0,0c0,0-0.2,0-0.6-0.1c-0.2,0-0.4-0.1-0.7-0.2c-0.1-0.1-0.3-0.1-0.4-0.2c-0.1-0.1-0.3-0.2-0.4-0.3c-0.1-0.1-0.3-0.2-0.4-0.4
					c-0.1-0.1-0.3-0.3-0.4-0.4c-0.1-0.2-0.2-0.3-0.3-0.5c-0.1-0.2-0.2-0.4-0.2-0.6c-0.1-0.4-0.2-0.9-0.3-1.3c-0.1-0.4,0-0.9,0-1.4
					c0-0.5,0.1-0.9,0.2-1.3c0.1-0.4,0.3-0.8,0.5-1.2c0.1-0.2,0.2-0.4,0.4-0.5c0.1-0.1,0.2-0.1,0.2-0.2c0.1-0.1,0.2-0.1,0.3-0.1
					c0.4-0.1,0.8,0,1.1,0.3c0.5,0.5,0.7,1,0.8,1.4C48.9,70.9,49,71.1,48.9,71.1L48.9,71.1z"/>
			</g>
			<g>
				<path fill="#C99477" d="M45.7,70.9c0,0,1.5-1.1,3.3,4"/>
				<path fill="#736458" d="M45.7,70.9c0,0,0.3-0.3,0.9,0c0.5,0.2,1,0.8,1.4,1.4c0.2,0.3,0.4,0.6,0.5,0.9c0.1,0.3,0.2,0.6,0.3,0.9
					c0.1,0.5,0.1,0.9,0.1,0.9l0,0c0,0-0.2-0.3-0.5-0.8c-0.1-0.2-0.3-0.5-0.4-0.8c-0.1-0.3-0.3-0.6-0.4-0.9c-0.3-0.6-0.7-1.2-1.2-1.4
					C46,70.7,45.7,70.9,45.7,70.9L45.7,70.9z"/>
			</g>
		</g>
		<g>
			<path fill="#DCAC8F" d="M67.3,62.5v21.1c0,2.1-3.7,3.4-8.8,4.3c-4.7-0.7-9.2-2.2-9.2-4.3V62.5H67.3z"/>
			<path fill="#736458" d="M66.9,62.9l0.3,7.8c0,1.3,0.1,2.6,0.1,3.9v3.9v3.9v1c0,0.1,0,0.3,0,0.5c0,0.2-0.1,0.4-0.2,0.6
				c-0.3,0.7-0.9,1.2-1.4,1.6c-1.2,0.7-2.4,1.1-3.7,1.5c-1.3,0.3-2.6,0.6-3.8,0.8l-0.1,0l-0.1,0c-1.3-0.2-2.6-0.5-3.9-0.8
				c-1.3-0.4-2.5-0.8-3.7-1.5c-0.6-0.4-1.3-0.8-1.7-1.5c-0.2-0.3-0.4-0.8-0.4-1.1v-1v-3.9V62.9v-0.4h0.6h4.5c1.5,0,3,0,4.5,0
				L66.9,62.9z M66.9,62.9l-9,0.5c-1.5,0.1-3,0.2-4.5,0.2h-4.5l0.4-0.6v15.7v3.9v1c0,0.3,0,0.5,0.2,0.8c0.3,0.5,0.8,0.9,1.3,1.2
				c1.1,0.6,2.3,1.1,3.5,1.4c1.2,0.3,2.5,0.6,3.8,0.8l-0.1,0c1.3-0.2,2.5-0.5,3.8-0.8c1.2-0.3,2.5-0.8,3.5-1.4
				c0.5-0.3,1-0.7,1.2-1.2c0.1-0.1,0-0.2,0-0.4c0-0.2-0.1-0.3-0.1-0.5v-1v-3.9v-3.9c0-1.3,0.1-2.6,0.2-3.9L66.9,62.9z"/>
		</g>
		<g>
			<g>
				<circle fill="#7A9943" cx="53.8" cy="69.7" r="0.7"/>
				<path fill="#736458" d="M54.4,69.7c0,0,0,0.1,0,0.2c0,0.1,0,0.3-0.2,0.5c-0.1,0.1-0.2,0.2-0.4,0.2c-0.2,0-0.3-0.1-0.4-0.1
					C53.2,70.3,53,70,53,69.7c0-0.1,0-0.3,0.1-0.5c0.1-0.2,0.2-0.3,0.4-0.4c0.1-0.1,0.3-0.1,0.5-0.1c0.2,0,0.3,0.1,0.4,0.2
					c0.2,0.2,0.2,0.4,0.2,0.5C54.4,69.7,54.4,69.7,54.4,69.7z M54.4,69.7c0,0,0-0.1,0-0.2c0-0.1-0.2-0.2-0.3-0.2c-0.1,0-0.2,0-0.2,0
					c-0.1,0-0.1,0-0.2,0c-0.1,0-0.1,0.1-0.2,0.1c-0.1,0.1-0.1,0.1-0.2,0.3c0,0.1,0,0.2,0,0.3c0.1,0.1,0.2,0.2,0.3,0.2
					c0.1,0,0.2,0,0.3,0c0.1,0,0.1,0,0.2-0.1c0.1,0,0.3-0.1,0.3-0.2C54.4,69.8,54.4,69.7,54.4,69.7z"/>
			</g>
			<g>
				<circle fill="#7A9943" cx="62" cy="69.7" r="0.7"/>
				<path fill="#736458" d="M62.7,69.7c0,0,0,0.1,0,0.2c0,0.1,0,0.3-0.2,0.5c-0.1,0.1-0.2,0.2-0.4,0.2c-0.2,0-0.3-0.1-0.4-0.1
					c-0.2-0.2-0.4-0.4-0.5-0.7c0-0.1,0-0.3,0.1-0.5c0.1-0.2,0.2-0.3,0.4-0.4c0.1-0.1,0.3-0.1,0.5-0.1c0.2,0,0.3,0.1,0.4,0.2
					c0.2,0.2,0.2,0.4,0.2,0.5C62.7,69.7,62.7,69.7,62.7,69.7z M62.6,69.7c0,0,0-0.1,0-0.2c0-0.1-0.2-0.2-0.3-0.2c-0.1,0-0.2,0-0.2,0
					c-0.1,0-0.1,0-0.2,0c-0.1,0-0.1,0.1-0.2,0.1c-0.1,0.1-0.1,0.1-0.2,0.3c0,0.1,0,0.2,0,0.3c0.1,0.1,0.2,0.2,0.3,0.2
					c0.1,0,0.2,0,0.3,0c0.1,0,0.1,0,0.2-0.1c0.1,0,0.3-0.1,0.3-0.2C62.6,69.8,62.6,69.7,62.6,69.7z"/>
			</g>
		</g>
		<ellipse opacity="0.42" fill="#736458" cx="57.8" cy="75" rx="2.5" ry="3.6"/>
		<g>
			<g>
				
					<rect x="51" y="65.5" transform="matrix(0.9918 -0.1278 0.1278 0.9918 -8.0166 7.363)" fill="#9B7A55" width="4.7" height="1.4"/>
				<path fill="#736458" d="M55.6,66.6c-0.8,0.2-1.4,0.4-2.2,0.5c-0.8,0.1-1.5,0.1-2.3,0.2l0,0l0-0.1c-0.1-0.5-0.1-0.9-0.2-1.3
					l0-0.1l0.1,0c0.8-0.2,1.5-0.3,2.3-0.4c0.8-0.1,1.6-0.2,2.3-0.2l0.2,0l0.3,0.2c0,0.5,0.3,0.9,0.3,1.4l-1,0L55.6,66.6z M55.8,66.5
					c-0.1-0.4-0.2-0.9-0.3-1.3l0.2,0.2c-0.8,0.1-1.5,0.3-2.3,0.4c-0.8,0.1-1.6,0.2-2.4,0.2l0.1-0.1c0,0.5,0.1,0.9,0.1,1.4l-0.1-0.1
					c0.8-0.1,1.5-0.4,2.3-0.4C54.2,66.5,55,66.5,55.8,66.5z"/>
			</g>
			<g>
				
					<rect x="60" y="65.8" transform="matrix(-0.9918 -0.1278 0.1278 -0.9918 115.6869 140.3442)" fill="#9B7A55" width="4.7" height="1.4"/>
				<path fill="#736458" d="M60,66.8c0.8,0,1.6,0,2.3,0.1c0.8,0.1,1.5,0.3,2.3,0.4l-0.1,0.1c0.1-0.5,0.1-0.9,0.1-1.4l0.1,0.1
					c-0.8,0-1.6-0.1-2.4-0.2c-0.8-0.1-1.6-0.2-2.3-0.4l0.2-0.2C60.2,65.9,60.1,66.4,60,66.8z M60.3,66.8c0-0.5-0.2-0.9-0.2-1.4
					L60,65.3l0.1,0c0.8,0.1,1.5,0.1,2.3,0.2c0.8,0.1,1.5,0.2,2.3,0.4l0.1,0l0,0.1c-0.1,0.4-0.2,0.9-0.2,1.3l0,0.1l-0.1,0
					c-0.8-0.1-1.6,0-2.4-0.2c-0.8-0.1-1.3-0.3-2.1-0.5L60.3,66.8L60.3,66.8z"/>
			</g>
		</g>
		<g>
			<path fill="#C99477" d="M60.3,75.1c0,0.1,0,0.3,0,0.4c0,0.1,0,0.3,0,0.4c-0.2,1-1.2,1.8-2.5,1.8c-1.3,0-2.3-0.8-2.5-1.8
				c0-0.1,0-0.3,0-0.4c0-0.1,0-0.3,0-0.4c0-3.4,1.1-6.1,2.5-6.1C59.2,69,60.3,71.8,60.3,75.1z"/>
			<path fill="#736458" d="M60.3,75.1l0,0.8v0c0,0.6-0.4,1.1-0.8,1.4c-0.5,0.4-1,0.5-1.6,0.6c-0.3,0-0.6,0-0.9-0.1
				c-0.3-0.1-0.6-0.2-0.8-0.4c-0.5-0.3-0.8-0.9-0.9-1.5l0,0l0,0c0-0.6,0-1.2,0.1-1.9c0-0.6,0.1-1.2,0.2-1.9c0.1-0.6,0.3-1.2,0.5-1.8
				c0.3-0.6,0.6-1.2,1.3-1.5c0.2-0.1,0.4-0.1,0.6-0.1c0.1,0,0.4,0.1,0.5,0.2c0.3,0.2,0.6,0.4,0.8,0.7c0.2,0.3,0.4,0.6,0.5,0.9
				c0.1,0.3,0.2,0.6,0.3,0.9c0.2,0.6,0.2,1.2,0.3,1.9C60.3,73.9,60.4,74.5,60.3,75.1z M60.3,75.1c0-0.6-0.1-1.2-0.2-1.8
				c-0.1-0.6-0.3-1.2-0.5-1.8c-0.1-0.3-0.2-0.6-0.3-0.8c-0.1-0.3-0.3-0.5-0.4-0.8c-0.2-0.2-0.4-0.4-0.6-0.6c-0.1,0-0.2-0.1-0.4-0.1
				c-0.1,0-0.2,0-0.3,0c-0.5,0.2-0.8,0.7-1.1,1.2c-0.3,0.5-0.5,1.1-0.6,1.7c-0.2,0.6-0.3,1.2-0.3,1.8c-0.1,0.6,0,1.2,0,1.9l0,0
				c0.1,0.5,0.5,0.9,0.9,1.2c0.2,0.1,0.4,0.2,0.7,0.3c0.3,0.1,0.5,0.1,0.8,0.1c0.5,0,1-0.1,1.5-0.3c0.4-0.3,1-0.7,1-1.2v0
				C60.3,75.7,60.3,75.4,60.3,75.1z"/>
		</g>
		<g>
			<g>
				<path fill="#BA75B1" d="M64.1,78.3c-0.6,2.2-3.2,3.8-6.3,3.8s-5.7-1.6-6.3-3.8c0.6,0.4,3.2,0.6,6.3,0.6
					C60.9,78.9,63.5,78.6,64.1,78.3z"/>
				<path fill="#736458" d="M64.2,78.3c-0.1,0.6-0.5,1.3-0.9,1.8c-0.4,0.5-1,1-1.5,1.3c-0.3,0.2-0.6,0.3-0.9,0.4
					c-0.3,0.1-0.6,0.2-1,0.3c-0.7,0.1-1.3,0.2-2,0.2c-1.3-0.1-2.6-0.4-3.8-1c-0.6-0.3-1.1-0.7-1.6-1.2c-0.5-0.5-0.8-1.1-1-1.7
					L51.3,78l0.4,0.2c0.4,0.2,1,0.2,1.5,0.3c0.5,0.1,1,0.1,1.6,0.1c1,0,2.1,0.1,3.1,0.1c1.1,0,2.1,0,3.2,0c0.5,0,1.1,0,1.6-0.1
					C63.1,78.5,63.6,78.5,64.2,78.3L64.2,78.3L64.2,78.3z M64.1,78.3c-0.5,0.2-1,0.3-1.5,0.4c-0.5,0.1-1.1,0.2-1.6,0.2
					c-1.1,0.1-2.1,0.2-3.2,0.2c-1.1,0-2.1,0-3.2-0.1c-0.5,0-1.1-0.1-1.6-0.2c-0.3,0-0.5-0.1-0.8-0.2c-0.3-0.1-0.5-0.1-0.8-0.3
					l0.3-0.2c0.3,1.2,1.2,2.3,2.4,2.9c1.1,0.6,2.5,0.9,3.7,0.8c0.6,0,1.3-0.1,1.9-0.3c0.6-0.1,1.2-0.4,1.8-0.7
					C62.6,80.4,63.6,79.5,64.1,78.3z"/>
			</g>
			<g>
				<path fill="#FFFFFF" d="M64.1,78.3c0,0.2-0.1,0.3-0.2,0.5c-0.1,0.2-0.2,0.5-0.4,0.7c-1.1,0.2-3.2,0.4-5.6,0.4
					c-2.7,0-5-0.2-6-0.5c-0.1-0.2-0.2-0.3-0.3-0.5c-0.1-0.2-0.2-0.4-0.2-0.6c0.2,0.1,0.6,0.2,1.1,0.3c1.2,0.2,3,0.3,5.1,0.3
					c2.2,0,4.1-0.1,5.3-0.3C63.6,78.5,64,78.4,64.1,78.3z"/>
				<path fill="#736458" d="M64.2,78.2l-0.1,0.4l0,0.2c0,0.1,0,0.1-0.1,0.2l-0.3,0.6l0,0l-0.1,0c-1,0.2-1.9,0.4-2.9,0.4
					c-1,0.1-1.9,0.1-2.9,0.1c-1,0-1.9-0.1-2.9-0.2c-1-0.1-1.9-0.1-2.9-0.4l0,0l0,0l-0.1-0.3c0-0.1-0.1-0.2-0.1-0.3l-0.2-0.5L51.3,78
					l0.4,0.2c0.2,0.1,0.5,0.1,0.7,0.2c0.3,0,0.5,0.1,0.8,0.1c0.5,0,1,0.1,1.6,0.1c1,0,2.1,0.1,3.1,0.1c1.1,0,2.1,0,3.2,0
					c0.5,0,1.1,0,1.6-0.1C63.1,78.5,63.6,78.5,64.2,78.2L64.2,78.2z M64.1,78.3c-0.5,0.2-1,0.3-1.5,0.4c-0.5,0.1-1.1,0.2-1.6,0.2
					c-1.1,0.1-2.1,0.2-3.2,0.2c-1.1,0-2.1,0-3.2-0.1c-0.5,0-1.1-0.1-1.6-0.2c-0.3,0-0.5-0.1-0.8-0.2c-0.3-0.1-0.5-0.1-0.8-0.3
					l0.2-0.2l0.2,0.5c0,0.1,0.1,0.2,0.1,0.2l0.1,0.2l-0.1,0c0.9,0.3,1.9,0.4,2.8,0.4c1,0.1,1.9,0,2.9,0l2.9-0.1
					c1-0.1,1.9-0.1,2.9-0.2l-0.1,0.1l0.3-0.5c0,0,0.1-0.1,0.1-0.1l0.1-0.1L64.1,78.3z"/>
			</g>
		</g>
		<path fill="#9B7A55" d="M67.8,62.7c-0.2,0.3-0.9,1.3-0.9,2c0,0-0.1,4.9-0.1,3.8c0-1.1-2-4.9-2-4.9H50.9c0,0-1.5,3.1-1.8,5.6
			c0-0.6-0.2-3.9-0.2-3.9s-0.9-2-1.2-1.8c-0.3,0.2,2.3-5.3,5-6.1c-1,1.1-1.1,1.8-1.1,2c0,0.1,6.3-3.6,11.2-3c-2.4,0.6-3.5,2-3.5,2.1
			c0.1,0.1,5,0.8,6.8-0.6c-1.5,1.2-2.1,2-2.1,2s2.8-0.3,3.6,0.3c-2-0.1-2,0.4-2,0.4S68.2,62.1,67.8,62.7z"/>
		<g>
			<path fill="#736458" d="M48.9,65.1c-0.2-0.4-0.4-0.7-0.7-1.1c-0.1-0.2-0.2-0.4-0.4-0.5c0,0-0.1-0.1-0.1-0.1c0,0,0,0,0,0l0,0l0,0
				c0.1,0-0.1,0-0.1,0h0c0,0,0,0-0.1-0.1c0,0,0-0.1,0-0.2l0,0c0-0.1,0.1-0.2,0.1-0.3c0.3-0.8,0.7-1.6,1.2-2.3c0.5-0.7,1-1.4,1.6-2.1
				c0.6-0.6,1.3-1.2,2.2-1.5l1.1-0.3l-0.8,0.9c-0.4,0.4-0.7,0.9-0.9,1.3c-0.1,0.1,0.1,0.2,0,0.4l0.2,0.1v0c0,0.1-0.5-0.8-0.4,0.2h0
				c0,0,0-0.2,0-0.2c0,0-0.1-0.2-0.1-0.2c0,0-0.1-0.1-0.1,0c0,0,0,0,0,0l0.2-0.1l0.8-0.4c1.1-0.5,2.2-0.9,3.3-1.3
				c1.1-0.4,2.2-0.7,3.4-0.9c1.2-0.2,2.3-0.3,3.5-0.2l1,0.1l-1,0.3c-0.9,0.2-1.7,0.6-2.4,1.2c-0.2,0.1-0.3,0.3-0.5,0.4
				c-0.1,0.1-0.2,0.2-0.2,0.2c0,0-0.1,0.1-0.1,0.1c0,0,0,0,0,0s0,0,0,0c0-0.1,0-0.1,0-0.2l0,0.1c0,0-0.2,0.1-0.1,0.1h0l0-0.2
				c0.1,0,0.3-0.1,0.6,0l0.7,0c0.9,0.1,1.8,0.1,2.7,0c0.4,0,0.9-0.1,1.3-0.3c0.4-0.1,0.8-0.3,1.1-0.5l0.5,0.6
				c-0.4,0.3-0.7,0.6-1.1,0.9c-0.2,0.2-0.3,0.3-0.5,0.5c-0.2,0.2-0.3,0.3-0.4,0.5L64,59.4c0.6-0.1,1.2-0.1,1.9-0.1
				c0.3,0,0.6,0,0.9,0.1c0.3,0.1,0.6,0.1,1,0.4l0.9,0.6l-1.1,0c-0.3,0-0.7,0-1,0c-0.2,0-0.3,0-0.5,0.1c-0.1,0-0.1,0-0.2,0.1l-0.1,0
				c0,0,0,0,0-0.1l-0.1-0.2c0.4,0.3,0.8,0.5,1.1,0.8c0.4,0.3,0.7,0.6,1,1c0.1,0.1,0.1,0.2,0.1,0.4c0,0.1,0,0.2,0,0.2
				c0,0.1-0.1,0.1-0.1,0.2l-0.4,0.6c-0.2,0.4-0.5,0.8-0.5,1.2l-0.1,0c0-0.5,0.2-0.9,0.4-1.3l0.3-0.6c0.1-0.1,0.1-0.2,0.1-0.2
				c0-0.1-0.1-0.2-0.1-0.2c-0.2-0.3-0.6-0.6-1-0.9c-0.4-0.3-0.7-0.5-1.1-0.7l-0.1-0.1l0-0.1c0-0.2,0.1-0.2,0.1-0.3
				c0.1-0.1,0.1-0.1,0.2-0.1c0.1-0.1,0.2-0.1,0.3-0.1c0.2-0.1,0.4-0.1,0.6-0.1c0.4,0,0.7-0.1,1.1-0.1l-0.2,0.6
				c-0.2-0.1-0.4-0.2-0.7-0.2c-0.3,0-0.6,0-0.9,0c-0.6,0-1.2,0-1.8,0.1l-0.9,0.1l0.5-0.7c0.2-0.2,0.3-0.4,0.5-0.6
				c0.2-0.2,0.3-0.4,0.5-0.5c0.4-0.3,0.7-0.7,1.1-1l0.5,0.6c-0.2,0.1-0.4,0.3-0.7,0.4c-0.2,0.1-0.5,0.2-0.7,0.3
				c-0.5,0.1-1,0.2-1.4,0.2c-1,0.1-1.9,0-2.8,0c-0.2,0-0.5-0.1-0.7-0.1c-0.2,0-0.4-0.1-0.8-0.2l0-0.1h0c0.1,0-0.1,0-0.1,0l0,0
				c0-0.1,0-0.2,0-0.2c0-0.1,0,0,0-0.1c0-0.1,0-0.1,0.1-0.1c0-0.1,0.1-0.1,0.1-0.2c0.1-0.1,0.2-0.2,0.3-0.3c0.2-0.2,0.4-0.3,0.6-0.4
				c0.8-0.5,1.7-0.9,2.6-1.1l0,0.4c-1.1-0.2-2.3-0.1-3.4,0.1c-1.1,0.2-2.3,0.6-3.3,1C55,58,53.9,58.5,52.9,59l-0.8,0.4l-0.2,0.1l0,0
				c0,0-0.1,0-0.2,0c-0.1,0-0.1,0-0.2,0c0,0,0,0,0,0h0c0.1,0-0.2-0.3-0.2-0.2v0c0-0.1,0-0.1,0.1-0.2c0-0.2,0.1-0.3,0.2-0.5
				c0.2-0.6,0.6-1.1,1-1.5l0.3,0.5c-0.7,0.2-1.4,0.7-2,1.3c-0.6,0.6-1.1,1.3-1.6,1.9c-0.5,0.7-0.9,1.4-1.3,2.2
				c0,0.1-0.1,0.2-0.1,0.3l0,0c0,0,0-0.1,0-0.1c0,0-0.1,0-0.1,0l0,0c0,0-0.2,0-0.1,0l0,0l0,0c0.1,0,0.2,0,0.2,0
				c0.1,0,0.1,0.1,0.2,0.1c0.2,0.2,0.3,0.4,0.4,0.6C48.6,64.3,48.8,64.7,48.9,65.1L48.9,65.1z"/>
		</g>
	</g>
	<ellipse opacity="0.42" fill="#736458" cx="30.3" cy="87.1" rx="3.7" ry="2.9"/>
	<g>
		<g>
			<g>
				<path fill="#C99477" d="M22.4,75c0,0-0.6-1.6-1.4-1.3s-2.7,5.1,1.4,6"/>
				<path fill="#736458" d="M22.4,75c0,0-0.1-0.1-0.2-0.4c-0.1-0.2-0.3-0.6-0.7-0.8c-0.2-0.1-0.4-0.1-0.6,0
					c-0.2,0.2-0.3,0.4-0.4,0.6c-0.2,0.5-0.4,1.1-0.4,1.7c0,0.3,0,0.6,0,0.9l0.1,0.4c0,0.1,0.1,0.2,0.1,0.4c0.1,0.2,0.2,0.5,0.4,0.6
					c0.1,0.2,0.3,0.3,0.5,0.5c0.1,0.2,0.3,0.2,0.5,0.3c0.1,0.1,0.3,0.2,0.4,0.2c0.2,0.1,0.4,0.2,0.4,0.2l0,0.1c0,0-0.2,0-0.4,0
					c-0.1,0-0.3,0-0.5-0.1c-0.2-0.1-0.4-0.1-0.6-0.3c-0.2-0.1-0.4-0.3-0.6-0.5c-0.2-0.2-0.3-0.5-0.5-0.8c0-0.2-0.1-0.3-0.1-0.5
					c0-0.2,0-0.3-0.1-0.5c0-0.3,0-0.6,0.1-1c0.1-0.6,0.3-1.2,0.6-1.8c0.1-0.2,0.3-0.5,0.6-0.7c0.3-0.2,0.6-0.1,0.8,0.1
					c0.4,0.3,0.5,0.7,0.7,0.9C22.4,74.8,22.5,75,22.4,75L22.4,75z"/>
			</g>
			<g>
				<path fill="#C99477" d="M20.2,75.2c0,0,0.6-1.7,2.3,2.3"/>
				<path fill="#736458" d="M20.1,75.2c0,0,0-0.1,0.1-0.2c0,0,0.1-0.1,0.1-0.2c0.1-0.1,0.2-0.1,0.3-0.1c0.2,0,0.5,0.1,0.6,0.3
					c0.2,0.2,0.4,0.4,0.5,0.6c0.2,0.2,0.3,0.4,0.4,0.6c0.1,0.2,0.2,0.4,0.2,0.6c0.1,0.4,0.1,0.6,0.1,0.6l-0.1,0c0,0-0.2-0.2-0.4-0.5
					c-0.1-0.2-0.2-0.3-0.3-0.5c-0.1-0.2-0.2-0.4-0.3-0.6c-0.1-0.2-0.2-0.4-0.4-0.6c-0.1-0.2-0.3-0.3-0.4-0.3c-0.1,0-0.3,0-0.3,0.1
					C20.2,75.2,20.2,75.2,20.1,75.2L20.1,75.2z"/>
			</g>
		</g>
		<g>
			<g>
				<path fill="#C99477" d="M38.5,75c0,0,0.6-1.6,1.4-1.3s2.7,5.1-1.4,6"/>
				<path fill="#736458" d="M38.5,75c0,0,0-0.1,0.2-0.4c0.1-0.2,0.3-0.6,0.7-0.9c0.2-0.2,0.6-0.2,0.8-0.1c0.2,0.2,0.4,0.4,0.6,0.7
					c0.3,0.5,0.5,1.1,0.6,1.8c0.1,0.3,0.1,0.6,0.1,1c0,0.2,0,0.3-0.1,0.5c0,0.2-0.1,0.3-0.1,0.5c-0.1,0.3-0.3,0.6-0.5,0.8
					c-0.2,0.2-0.4,0.4-0.6,0.5c-0.2,0.2-0.4,0.2-0.6,0.3c-0.2,0.1-0.4,0.1-0.5,0.1c-0.3,0-0.4,0-0.4,0l0-0.1c0,0,0.1-0.1,0.4-0.2
					c0.1-0.1,0.3-0.1,0.4-0.2c0.1-0.1,0.3-0.2,0.5-0.3c0.2-0.1,0.3-0.3,0.5-0.5c0.1-0.2,0.3-0.4,0.4-0.6c0-0.1,0.1-0.2,0.1-0.4
					l0.1-0.4c0-0.3,0.1-0.6,0-0.9c0-0.6-0.2-1.2-0.4-1.7c-0.1-0.3-0.2-0.5-0.4-0.6c-0.2-0.1-0.4-0.1-0.6,0c-0.4,0.2-0.6,0.6-0.7,0.8
					C38.6,74.9,38.6,75,38.5,75L38.5,75z"/>
			</g>
			<g>
				<path fill="#C99477" d="M40.8,75.2c0,0-0.6-1.7-2.3,2.3"/>
				<path fill="#736458" d="M40.8,75.2c0,0,0-0.1-0.1-0.1C40.6,75,40.5,75,40.4,75c-0.1,0-0.3,0.2-0.4,0.3c-0.1,0.2-0.2,0.4-0.4,0.6
					c-0.1,0.2-0.2,0.4-0.3,0.6c-0.1,0.2-0.2,0.4-0.3,0.5c-0.2,0.3-0.4,0.5-0.4,0.5l-0.1,0c0,0,0-0.3,0.1-0.6c0-0.2,0.1-0.4,0.2-0.6
					c0.1-0.2,0.3-0.4,0.4-0.6c0.2-0.2,0.3-0.4,0.5-0.6c0.2-0.2,0.4-0.3,0.6-0.3c0.1,0,0.2,0,0.3,0.1c0.1,0.1,0.1,0.1,0.1,0.2
					C40.8,75.2,40.8,75.2,40.8,75.2L40.8,75.2z"/>
			</g>
		</g>
		<g>
			<path fill="#DCAC8F" d="M38.3,66.5v14.7c0,1.6-0.7,3-2,4.2c-2.1,2.1-5,3.4-5.7,3.4s-3.9-1.4-6-3.4c-1.2-1.2-2.3-2.7-2.3-4.2V66.5
				H38.3z"/>
			<path fill="#736458" d="M38.4,66.5l0.3,6.6c0,1.1,0.1,2.2,0.1,3.3l0,3.3l0,1.7c0,0.6-0.2,1.2-0.4,1.7c-0.4,1.1-1.2,2-2,2.8
				c-0.8,0.8-1.7,1.4-2.7,2c-0.5,0.3-1,0.6-1.5,0.8c-0.3,0.1-0.5,0.2-0.8,0.3c-0.3,0.1-0.6,0.2-0.9,0.2c-0.7-0.1-1.1-0.3-1.7-0.6
				c-0.5-0.2-1-0.5-1.5-0.8c-1-0.6-1.9-1.2-2.7-2c-0.8-0.8-1.6-1.6-2.1-2.7c-0.2-0.5-0.3-1.1-0.3-1.7l0.1-1.7V66.5v0h0.1h4
				c1.3,0,2.7-0.2,4-0.1L38.4,66.5z M38.4,66.5l-8,0.1c-1.3,0.1-2.7-0.2-4-0.2h-4l-0.1,0v13.2l0.2,1.6c0,0.5,0.3,1,0.5,1.5
				c0.4,0.9,1.2,1.8,2,2.5c0.8,0.7,1.7,1.4,2.6,1.9c0.5,0.3,1,0.5,1.4,0.8c0.5,0.2,1,0.4,1.4,0.5c0.4,0,0.9-0.2,1.4-0.4
				c0.5-0.2,1-0.5,1.4-0.8c0.9-0.6,1.8-1.2,2.6-1.9c0.8-0.7,1.4-1.6,1.8-2.5c0.2-0.5,0.3-1,0.3-1.5l0-1.6l0-3.3c0-1.1,0-2.2,0.1-3.3
				L38.4,66.5z"/>
		</g>
		<ellipse opacity="0.42" fill="#736458" cx="30.5" cy="79.3" rx="1.3" ry="1.8"/>
		<g>
			<path fill="#C99477" d="M31.8,79.2c0,0.8-0.6,1.5-1.3,1.5c-0.7,0-1.3-0.7-1.3-1.5c0-2.5,0.6-4.5,1.3-4.5
				C31.2,74.7,31.8,76.7,31.8,79.2z"/>
			<g>
				<path fill="#736458" d="M31.9,79.2c0,0,0,0.2-0.1,0.6c-0.1,0.2-0.2,0.4-0.4,0.6c-0.2,0.2-0.5,0.4-0.9,0.4
					c-0.4,0-0.8-0.2-1.1-0.5c-0.3-0.3-0.4-0.8-0.3-1.3c0.1-0.8,0.1-1.7,0.3-2.6c0.1-0.4,0.2-0.9,0.4-1.3c0.1-0.2,0.2-0.4,0.5-0.6
					c0.1,0,0.1-0.1,0.2-0.1l0.1,0c0.1,0,0.1,0,0.1,0l0.1,0c0.1,0,0.2,0.1,0.2,0.1c0.1,0,0.1,0.1,0.2,0.1c0.4,0.4,0.5,0.8,0.6,1.2
					c0.1,0.4,0.2,0.7,0.2,1.1c0,0.7,0,1.2,0,1.6C31.9,78.9,31.9,79.2,31.9,79.2z M31.8,79.2c0,0,0-0.2,0-0.6c0-0.4-0.1-0.9-0.3-1.6
					c-0.1-0.3-0.2-0.7-0.3-1c-0.1-0.3-0.3-0.7-0.5-1l-0.1-0.1c0,0,0,0,0,0l-0.1,0c0,0-0.1,0,0,0l0,0c0,0,0,0-0.1,0
					c-0.1,0.1-0.2,0.2-0.3,0.4c-0.2,0.3-0.4,0.8-0.5,1.2c-0.3,0.8-0.3,1.7-0.3,2.6c0,0.8,0.6,1.4,1.2,1.4c0.3,0,0.6,0,0.8-0.2
					c0.2-0.1,0.4-0.3,0.4-0.5C31.8,79.4,31.8,79.2,31.8,79.2z"/>
			</g>
		</g>
		<g>
			<g>
				<circle fill="#66A4C4" cx="26.3" cy="75.2" r="0.6"/>
				<path fill="#736458" d="M25.7,75.2c0,0,0-0.1,0-0.2c0-0.1,0-0.3,0.2-0.5c0.1-0.1,0.2-0.1,0.3-0.1c0.1,0,0.3,0.1,0.4,0.1
					c0.2,0.2,0.3,0.4,0.4,0.6c0,0.1,0,0.3-0.1,0.4c-0.1,0.1-0.2,0.2-0.3,0.3c-0.1,0.1-0.3,0.1-0.4,0.1c-0.2,0-0.3-0.1-0.3-0.2
					c-0.2-0.2-0.2-0.4-0.2-0.5C25.7,75.3,25.7,75.2,25.7,75.2z M25.8,75.2c0,0,0,0.1,0,0.1c0,0.1,0.2,0.2,0.3,0.2c0.1,0,0.1,0,0.2,0
					c0.1,0,0.1,0,0.2,0c0.1,0,0.1,0,0.2-0.1c0.1-0.1,0.1-0.1,0.1-0.2c0-0.1,0-0.2,0-0.3c0-0.1-0.1-0.1-0.2-0.1c-0.1,0-0.2,0-0.2,0
					c-0.1,0-0.1,0-0.2,0c-0.1,0-0.3,0.1-0.3,0.2C25.8,75.2,25.8,75.2,25.8,75.2z"/>
			</g>
			<g>
				<circle fill="#66A4C4" cx="34.5" cy="75.2" r="0.6"/>
				<path fill="#736458" d="M33.9,75.2c0,0,0-0.1,0-0.2c0-0.1,0-0.3,0.2-0.5c0.1-0.1,0.2-0.1,0.3-0.1c0.1,0,0.3,0.1,0.4,0.1
					c0.2,0.2,0.3,0.4,0.4,0.6c0,0.1,0,0.3-0.1,0.4c-0.1,0.1-0.2,0.2-0.3,0.3c-0.1,0.1-0.3,0.1-0.4,0.1c-0.2,0-0.3-0.1-0.3-0.2
					c-0.2-0.2-0.2-0.4-0.2-0.5C33.9,75.3,33.9,75.2,33.9,75.2z M34,75.2c0,0,0,0.1,0,0.1c0,0.1,0.2,0.2,0.3,0.2c0.1,0,0.1,0,0.2,0
					c0.1,0,0.1,0,0.2,0c0.1,0,0.1,0,0.2-0.1c0.1-0.1,0.1-0.1,0.1-0.2c0-0.1,0-0.2,0-0.3c0-0.1-0.1-0.1-0.2-0.1c-0.1,0-0.2,0-0.2,0
					c-0.1,0-0.1,0-0.2,0c-0.1,0-0.3,0.1-0.3,0.2C34,75.2,34,75.2,34,75.2z"/>
			</g>
		</g>
		<g>
			<path fill="#BA75B1" stroke="#736458" stroke-width="0.4842" stroke-miterlimit="10" d="M35.9,82c-1,1.5-3,2.6-5.4,2.6
				c-2.4,0-4.5-1.1-5.5-2.7c1.7,0.2,3.6,0.4,5.7,0.4C32.6,82.3,34.3,82.2,35.9,82z"/>
			<g>
				<path fill="#FFFFFF" d="M35.9,82c-0.2,0.3-0.4,0.5-0.6,0.8c-1.4,0.2-3.1,0.3-4.8,0.3c-1.8,0-3.5-0.1-4.9-0.3
					c-0.2-0.2-0.5-0.5-0.6-0.8c1.7,0.2,3.6,0.4,5.7,0.4C32.6,82.3,34.3,82.2,35.9,82z"/>
				<path fill="#736458" d="M36,82c-0.2,0.3-0.4,0.5-0.5,0.8l0,0l0,0c-0.8,0.2-1.6,0.3-2.4,0.4c-0.8,0.1-1.6,0.1-2.4,0.1
					c-0.8,0-1.6-0.1-2.4-0.2c-0.8-0.1-1.6-0.2-2.4-0.2l0,0l0,0L24.9,82l-0.2-0.3l0.4,0c0.9,0.1,1.8,0.2,2.7,0.2
					c0.9,0,1.8,0.1,2.7,0.1C32.3,82.1,34.1,82.1,36,82L36,82L36,82z M35.9,82c-0.9,0.2-1.8,0.3-2.6,0.4c-0.9,0.1-1.8,0.1-2.7,0.1
					c-0.9,0-1.8,0-2.7-0.1c-0.9-0.1-1.8-0.2-2.7-0.4l0.2-0.2l0.6,0.8l-0.1,0c0.8,0.2,1.6,0.2,2.4,0.3c0.8,0,1.6,0,2.4,0l2.4-0.1
					c0.8,0,1.6-0.1,2.4-0.2l-0.1,0C35.5,82.5,35.7,82.3,35.9,82z"/>
			</g>
		</g>
		<path fill="#BCB363" d="M40.3,67.5c-0.2-1.4-3.9-3.3-4.1-3.3c-0.1-0.1-2.6-2.4-4.8-2.9C29.3,60.9,20,66,19.8,67.6
			c-0.2,1.7,1.1,6,1.1,6l0.5,0l0.2,0.2l0.4,0.5l0.6-0.7c0,0,11.6-6.9,13.3-5.8c1.6,1.1,2.2,4.6,2.4,6.6h0c0,0,0.1,0.2,0.1,0.2l0,0.2
			l0.3-0.6l0.6-0.6C39.5,73.7,39.5,68.9,40.3,67.5z"/>
		<g>
			<path fill="#736458" d="M39.5,73.5c-0.1-1-0.1-2-0.1-3.1c0-0.5,0.1-1,0.1-1.6c0.1-0.5,0.2-1,0.5-1.6l0,0.2
				c-0.1-0.4-0.6-0.9-1-1.3c-0.5-0.4-1-0.7-1.5-1.1c-0.3-0.2-0.5-0.3-0.8-0.5l-0.4-0.2c-0.2-0.1-0.3-0.2-0.4-0.3
				c-0.5-0.4-1-0.8-1.5-1.2c-0.5-0.4-1.1-0.7-1.6-1c-0.6-0.2-1.2-0.5-1.8-0.4c-0.6,0.1-1.2,0.3-1.8,0.5c-0.6,0.2-1.2,0.5-1.7,0.8
				c-1.1,0.6-2.3,1.2-3.3,1.8c-1.1,0.7-2.2,1.3-3.1,2.1c-0.2,0.2-0.5,0.4-0.6,0.6c-0.2,0.2-0.2,0.3-0.2,0.7c0,0.6,0.1,1.2,0.2,1.8
				c0.2,1.3,0.4,2.5,0.7,3.8l-0.1,0c-0.5-1.2-0.9-2.4-1.1-3.7c-0.1-0.6-0.3-1.3-0.3-2c0-0.1,0-0.2,0-0.2l0-0.1c0-0.1,0-0.1,0-0.2
				c0.1-0.2,0.2-0.4,0.3-0.5c0.2-0.3,0.4-0.5,0.7-0.8c0.5-0.4,1-0.8,1.6-1.2c0.5-0.4,1.1-0.7,1.6-1c1.1-0.6,2.3-1.2,3.5-1.7
				c0.6-0.2,1.2-0.5,1.8-0.7c0.6-0.2,1.2-0.4,1.9-0.4c0.4,0,0.7,0.1,1,0.2c0.3,0.1,0.6,0.2,0.9,0.4c0.6,0.3,1.1,0.6,1.7,1
				c0.5,0.4,1,0.7,1.6,1.1c0.1,0.1,0.2,0.2,0.4,0.2l0.4,0.2c0.3,0.1,0.6,0.3,0.9,0.4c0.6,0.3,1.1,0.7,1.6,1.1
				c0.5,0.4,1.1,0.9,1.3,1.7l0,0.1l-0.1,0.1c-0.2,0.4-0.3,0.9-0.4,1.4c-0.1,0.5-0.2,1-0.2,1.5C39.7,71.5,39.6,72.5,39.5,73.5
				L39.5,73.5z"/>
		</g>
		<g>
			<g>
				<g>
					<path fill="#736458" d="M22.4,75c0,0-0.1-0.1-0.2-0.4c-0.1-0.2-0.3-0.6-0.7-0.8c-0.2-0.1-0.4-0.1-0.6,0
						c-0.2,0.2-0.3,0.4-0.4,0.6c-0.2,0.5-0.4,1.1-0.4,1.7c0,0.3,0,0.6,0,0.9l0.1,0.4c0,0.1,0.1,0.2,0.1,0.4c0.1,0.2,0.2,0.5,0.4,0.6
						c0.1,0.2,0.3,0.3,0.5,0.5c0.1,0.2,0.3,0.2,0.5,0.3c0.1,0.1,0.3,0.2,0.4,0.2c0.2,0.1,0.4,0.2,0.4,0.2l0,0.1c0,0-0.2,0-0.4,0
						c-0.1,0-0.3,0-0.5-0.1c-0.2-0.1-0.4-0.1-0.6-0.3c-0.2-0.1-0.4-0.3-0.6-0.5c-0.2-0.2-0.3-0.5-0.5-0.8c0-0.2-0.1-0.3-0.1-0.5
						c0-0.2,0-0.3-0.1-0.5c0-0.3,0-0.6,0.1-1c0.1-0.6,0.3-1.2,0.6-1.8c0.1-0.2,0.3-0.5,0.6-0.7c0.3-0.2,0.6-0.1,0.8,0.1
						c0.4,0.3,0.5,0.7,0.7,0.9C22.4,74.8,22.5,75,22.4,75L22.4,75z"/>
				</g>
				<g>
					<path fill="#736458" d="M20.1,75.2c0,0,0-0.1,0.1-0.2c0,0,0.1-0.1,0.1-0.2c0.1-0.1,0.2-0.1,0.3-0.1c0.2,0,0.5,0.1,0.6,0.3
						c0.2,0.2,0.4,0.4,0.5,0.6c0.2,0.2,0.3,0.4,0.4,0.6c0.1,0.2,0.2,0.4,0.2,0.6c0.1,0.4,0.1,0.6,0.1,0.6l-0.1,0
						c0,0-0.2-0.2-0.4-0.5c-0.1-0.2-0.2-0.3-0.3-0.5c-0.1-0.2-0.2-0.4-0.3-0.6c-0.1-0.2-0.2-0.4-0.4-0.6c-0.1-0.2-0.3-0.3-0.4-0.3
						c-0.1,0-0.3,0-0.3,0.1C20.2,75.2,20.2,75.2,20.1,75.2L20.1,75.2z"/>
				</g>
			</g>
			<g>
				<g>
					<path fill="#736458" d="M38.5,75c0,0,0-0.1,0.2-0.4c0.1-0.2,0.3-0.6,0.7-0.9c0.2-0.2,0.6-0.2,0.8-0.1c0.2,0.2,0.4,0.4,0.6,0.7
						c0.3,0.5,0.5,1.1,0.6,1.8c0.1,0.3,0.1,0.6,0.1,1c0,0.2,0,0.3-0.1,0.5c0,0.2-0.1,0.3-0.1,0.5c-0.1,0.3-0.3,0.6-0.5,0.8
						c-0.2,0.2-0.4,0.4-0.6,0.5c-0.2,0.2-0.4,0.2-0.6,0.3c-0.2,0.1-0.4,0.1-0.5,0.1c-0.3,0-0.4,0-0.4,0l0-0.1c0,0,0.1-0.1,0.4-0.2
						c0.1-0.1,0.3-0.1,0.4-0.2c0.1-0.1,0.3-0.2,0.5-0.3c0.2-0.1,0.3-0.3,0.5-0.5c0.1-0.2,0.3-0.4,0.4-0.6c0-0.1,0.1-0.2,0.1-0.4
						l0.1-0.4c0-0.3,0.1-0.6,0-0.9c0-0.6-0.2-1.2-0.4-1.7c-0.1-0.3-0.2-0.5-0.4-0.6c-0.2-0.1-0.4-0.1-0.6,0
						c-0.4,0.2-0.6,0.6-0.7,0.8C38.6,74.9,38.6,75,38.5,75L38.5,75z"/>
				</g>
				<g>
					<path fill="#736458" d="M40.8,75.2c0,0,0-0.1-0.1-0.1C40.6,75,40.5,75,40.4,75c-0.1,0-0.3,0.2-0.4,0.3
						c-0.1,0.2-0.2,0.4-0.4,0.6c-0.1,0.2-0.2,0.4-0.3,0.6c-0.1,0.2-0.2,0.4-0.3,0.5c-0.2,0.3-0.4,0.5-0.4,0.5l-0.1,0
						c0,0,0-0.3,0.1-0.6c0-0.2,0.1-0.4,0.2-0.6c0.1-0.2,0.3-0.4,0.4-0.6c0.2-0.2,0.3-0.4,0.5-0.6c0.2-0.2,0.4-0.3,0.6-0.3
						c0.1,0,0.2,0,0.3,0.1c0.1,0.1,0.1,0.1,0.1,0.2C40.8,75.2,40.8,75.2,40.8,75.2L40.8,75.2z"/>
				</g>
			</g>
		</g>
		<g>
			<g>
				<path fill="#BCB363" d="M24.4,72.5c0,0,3-0.8,3.8-0.4c0.1-1.1,0-0.9,0-0.9S25.4,71.2,24.4,72.5z"/>
				<path fill="#736458" d="M24.4,72.5c0.6-0.3,1.2-0.5,1.9-0.6c0.3,0,0.7,0,1,0c0.3,0,0.7,0,1,0.2l-0.1,0.1c0-0.2,0-0.3,0-0.5
					l0-0.2l0-0.1c0,0,0,0,0,0c0,0,0,0,0,0.1c0,0,0.1,0.1,0.2,0c0,0,0.1,0,0.1,0l0,0l-0.2,0.1c-0.7,0.1-1.3,0.2-2,0.3
					c-0.3,0.1-0.7,0.1-1,0.3C25,72.2,24.7,72.3,24.4,72.5L24.4,72.5z M24.4,72.5c0.4-0.6,1.1-1,1.7-1.2c0.7-0.2,1.4-0.2,2.1-0.2
					l-0.2,0.1c0,0,0,0,0-0.1c0,0,0,0,0.1-0.1c0,0,0.2,0,0.2,0c0,0,0.1,0.1,0.1,0.1c0,0.1,0,0.1,0,0.1l0,0.1l0,0.2
					c0,0.2-0.1,0.3-0.1,0.5l0,0.1l-0.1-0.1c-0.3-0.1-0.6-0.1-0.9-0.1c-0.3,0.1-0.6,0.1-0.9,0.2C25.7,72.4,25.1,72.5,24.4,72.5
					L24.4,72.5L24.4,72.5z"/>
			</g>
			<g>
				<path fill="#BCB363" d="M36.5,72.5c0,0-3-0.8-3.8-0.4c-0.1-1.1,0-0.9,0-0.9S35.4,71.2,36.5,72.5z"/>
				<path fill="#736458" d="M36.5,72.5c-0.7,0-1.3-0.1-1.9-0.2c-0.3,0-0.6-0.1-0.9-0.2c-0.3-0.1-0.7-0.1-0.9,0.1l-0.1,0.1l0-0.1
					c0-0.2,0-0.3-0.1-0.5l0-0.2l0-0.1c0,0,0,0,0-0.1c0,0,0-0.1,0.1-0.1c0,0,0.2-0.1,0.2,0c0,0,0.1,0,0.1,0.1c0,0,0,0.1,0,0.1
					l-0.2-0.1c0.7-0.1,1.4,0,2.1,0.2C35.4,71.5,36.1,71.8,36.5,72.5L36.5,72.5L36.5,72.5z M36.4,72.5c-0.3-0.2-0.6-0.4-0.9-0.5
					c-0.3-0.1-0.6-0.2-1-0.3c-0.6-0.1-1.3-0.3-2-0.3l-0.2-0.1l0,0c0,0,0,0,0.1,0c0,0,0.2,0,0.2,0c0,0,0-0.1,0-0.1c0,0,0,0,0,0l0,0.1
					l0,0.2c0,0.2,0,0.3,0,0.5L32.6,72c0.3-0.1,0.7-0.1,1-0.2c0.3,0,0.7,0,1,0C35.2,72,35.9,72.2,36.4,72.5L36.4,72.5z"/>
			</g>
		</g>
	</g>
	<g>
		<g>
			<path fill="#9A6954" d="M92.3,86.5v6.6c0,1.2-2.3,2.1-5,2.1c-2.7,0-5-0.9-5-2.1v-6.6H92.3z"/>
			<g>
				<path fill="#544841" d="M92.3,86.1c0.2,2.1,0.2,4.2,0.3,6.3c0,0.3,0,0.5,0,0.8c-0.1,0.3-0.3,0.6-0.5,0.8c-0.4,0.4-1,0.6-1.5,0.8
					c-1,0.3-2.1,0.4-3.2,0.4c-1.1,0-2.1-0.2-3.1-0.5c-0.5-0.2-1-0.4-1.4-0.8c-0.2-0.2-0.4-0.4-0.5-0.8c-0.1-0.3,0-0.5,0-0.8
					c-0.1-2.1,0-4.2,0-6.3v-0.6h0.2c1.6,0,3.2,0.2,4.9,0.2c1.6,0,3.2,0.2,4.9,0.3L92.3,86.1L92.3,86.1z M92.2,86.2
					c-1.6,0.1-3.2,0.2-4.8,0.2c-1.6,0.1-3.2,0.1-4.9,0.1l0.3-0.3c0,2.1,0,4.2-0.1,6.3c0,0.2,0,0.6,0,0.8c0,0.2,0.1,0.4,0.3,0.6
					c0.3,0.3,0.8,0.6,1.3,0.8c1,0.4,2,0.5,3.1,0.5c1,0,2.1-0.2,3-0.6c0.5-0.2,0.9-0.4,1.2-0.7c0.2-0.2,0.3-0.3,0.3-0.5
					c0-0.2,0-0.5,0-0.8C92,90.4,92.1,88.3,92.2,86.2z"/>
			</g>
		</g>
		<g>
			<g>
				<path fill="#9A6954" d="M96.2,73.7c0,0,0.7-2.5,2-1.8c1.3,0.7,2.4,6.8-2,7.7"/>
				<path fill="#544841" d="M96.2,73.6c0,0,0-0.2,0.1-0.5c0.1-0.3,0.3-0.8,0.7-1.3c0.2-0.2,0.6-0.4,1-0.3l0.1,0.1c0,0,0,0,0.1,0
					l0.1,0c0.1,0.1,0.1,0.1,0.2,0.2c0.1,0.2,0.3,0.3,0.4,0.5c0.2,0.3,0.3,0.7,0.5,1.1c0.1,0.4,0.2,0.8,0.2,1.2c0,0.4,0.1,0.8,0,1.2
					c0,0.4-0.1,0.8-0.2,1.2c-0.1,0.4-0.3,0.7-0.5,1c-0.2,0.3-0.5,0.6-0.7,0.7c-0.3,0.2-0.5,0.3-0.8,0.4c-0.2,0.1-0.4,0.2-0.6,0.2
					c-0.4,0.1-0.6,0.1-0.6,0.1l0-0.1c0,0,0.2-0.1,0.5-0.2c0.2-0.1,0.3-0.2,0.5-0.3c0.1-0.1,0.2-0.1,0.3-0.2c0.1-0.1,0.2-0.2,0.3-0.3
					c0.1-0.1,0.2-0.2,0.3-0.3c0.1-0.1,0.2-0.2,0.3-0.4c0.1-0.1,0.1-0.3,0.2-0.4c0.1-0.1,0.1-0.3,0.2-0.5c0.1-0.3,0.2-0.7,0.3-1
					c0.1-0.4,0.1-0.7,0.1-1.1c0-0.4-0.1-0.8-0.1-1.1c-0.1-0.4-0.2-0.7-0.3-1c-0.1-0.2-0.2-0.3-0.2-0.4c0-0.1-0.1-0.1-0.2-0.2l0,0
					c0,0,0,0,0,0l-0.1,0c-0.3-0.1-0.5-0.1-0.7,0.1c-0.4,0.4-0.6,0.8-0.8,1.1C96.3,73.5,96.3,73.7,96.2,73.6L96.2,73.6z"/>
			</g>
			<g>
				<path fill="#9A6954" d="M99.1,73.4c0,0-1.4-1-2.9,3.6"/>
				<path fill="#544841" d="M99.1,73.5c0,0-0.3-0.2-0.7,0.1c-0.4,0.2-0.7,0.7-1,1.3c-0.1,0.3-0.2,0.6-0.3,0.8
					c-0.1,0.3-0.3,0.5-0.4,0.7c-0.3,0.4-0.5,0.6-0.5,0.6l-0.1,0c0,0,0-0.3,0-0.8c0-0.2,0.1-0.5,0.2-0.8c0.1-0.3,0.3-0.5,0.5-0.8
					c0.4-0.5,0.8-1.1,1.4-1.2C98.8,73.1,99.2,73.4,99.1,73.5L99.1,73.5z"/>
			</g>
		</g>
		<g>
			<g>
				<path fill="#9A6954" d="M78.2,73.7c0,0-0.7-2.5-2-1.8c-1.3,0.7-2.4,6.8,2,7.7"/>
				<path fill="#544841" d="M78.2,73.7c0,0-0.1-0.2-0.2-0.5c-0.1-0.3-0.4-0.8-0.8-1.1c-0.2-0.2-0.5-0.2-0.7-0.1l-0.1,0
					c0,0-0.1,0,0,0l0,0c-0.1,0.1-0.1,0.1-0.2,0.2c-0.1,0.1-0.2,0.2-0.2,0.4c-0.2,0.3-0.3,0.7-0.3,1c-0.1,0.4-0.1,0.7-0.1,1.1
					c0,0.4,0,0.8,0.1,1.1c0,0.4,0.1,0.7,0.3,1c0.1,0.2,0.1,0.3,0.2,0.5c0.1,0.1,0.2,0.3,0.2,0.4c0.1,0.1,0.2,0.2,0.3,0.4
					c0.1,0.1,0.2,0.2,0.3,0.3c0.1,0.1,0.2,0.2,0.3,0.3c0.1,0.1,0.2,0.1,0.3,0.2c0.2,0.1,0.4,0.2,0.5,0.3c0.3,0.1,0.5,0.2,0.5,0.2
					l0,0.1c0,0-0.2,0-0.6-0.1c-0.2,0-0.4-0.1-0.6-0.2c-0.2-0.1-0.5-0.2-0.8-0.4c-0.3-0.2-0.5-0.5-0.7-0.7c-0.2-0.3-0.4-0.6-0.5-1
					c-0.1-0.4-0.2-0.8-0.2-1.2c0-0.4,0-0.8,0-1.2c0-0.4,0.1-0.8,0.2-1.2c0.1-0.4,0.2-0.8,0.5-1.1c0.1-0.2,0.2-0.3,0.4-0.5
					c0.1-0.1,0.1-0.1,0.2-0.2l0.1,0c0.1,0,0.1,0,0.1,0l0.1-0.1c0.4-0.1,0.8,0,1,0.3c0.4,0.5,0.6,1,0.7,1.3
					C78.2,73.4,78.2,73.6,78.2,73.7L78.2,73.7z"/>
			</g>
			<g>
				<path fill="#9A6954" d="M75.3,73.4c0,0,1.4-1,2.9,3.6"/>
				<path fill="#544841" d="M75.3,73.4c0,0,0.3-0.3,0.8-0.1c0.5,0.2,1,0.7,1.4,1.2c0.2,0.3,0.4,0.5,0.5,0.8c0.1,0.3,0.2,0.6,0.2,0.8
					c0.1,0.5,0,0.8,0,0.8l-0.1,0c0,0-0.3-0.2-0.5-0.6c-0.1-0.2-0.3-0.4-0.4-0.7c-0.1-0.3-0.2-0.6-0.3-0.8c-0.3-0.5-0.6-1.1-1-1.3
					C75.6,73.3,75.3,73.5,75.3,73.4L75.3,73.4z"/>
			</g>
		</g>
		<ellipse opacity="0.42" fill="#736458" cx="87.4" cy="89.1" rx="4.8" ry="3.4"/>
		<path fill="#9A6954" stroke="#544841" stroke-miterlimit="10" d="M96.2,65.5c0-2.6-3.7-4.5-8.7-4.5c-5,0-8.7,2-8.7,4.5v19.9
			c0,2,5.9,4.2,8.8,4.2s8.6-2.1,8.6-4.2L96.2,65.5z"/>
		<g>
			<g>
				<circle fill="#736458" cx="83.3" cy="72.2" r="0.7"/>
				<path fill="#544841" d="M83.9,72.2c0,0,0,0.1,0,0.2c0,0.1,0,0.3-0.2,0.5C83.6,73,83.5,73,83.4,73c-0.2,0-0.3-0.1-0.4-0.1
					c-0.2-0.2-0.4-0.4-0.5-0.7c0-0.1,0-0.3,0.1-0.5c0.1-0.2,0.2-0.3,0.4-0.4c0.1-0.1,0.3-0.1,0.5-0.1c0.2,0,0.3,0.1,0.4,0.2
					c0.2,0.2,0.2,0.4,0.2,0.5C83.9,72.1,83.9,72.2,83.9,72.2z M83.9,72.1c0,0,0-0.1,0-0.2c0-0.1-0.2-0.2-0.3-0.2c-0.1,0-0.2,0-0.2,0
					c-0.1,0-0.1,0-0.2,0c-0.1,0-0.1,0.1-0.2,0.1c-0.1,0.1-0.1,0.1-0.2,0.3c0,0.1,0,0.2,0,0.3c0.1,0.1,0.2,0.2,0.3,0.2
					c0.1,0,0.2,0,0.3,0c0.1,0,0.1,0,0.2-0.1c0.1,0,0.3-0.1,0.3-0.2C83.9,72.2,83.9,72.1,83.9,72.1z"/>
			</g>
			<g>
				<circle fill="#736458" cx="91.5" cy="72.2" r="0.7"/>
				<path fill="#544841" d="M92.2,72.2c0,0,0,0.1,0,0.2c0,0.1,0,0.3-0.2,0.5C91.9,73,91.7,73,91.6,73c-0.2,0-0.3-0.1-0.4-0.1
					c-0.2-0.2-0.4-0.4-0.5-0.7c0-0.1,0-0.3,0.1-0.5c0.1-0.2,0.2-0.3,0.4-0.4c0.1-0.1,0.3-0.1,0.5-0.1c0.2,0,0.3,0.1,0.4,0.2
					c0.2,0.2,0.2,0.4,0.2,0.5C92.2,72.1,92.2,72.2,92.2,72.2z M92.1,72.1c0,0,0-0.1,0-0.2c0-0.1-0.2-0.2-0.3-0.2c-0.1,0-0.2,0-0.2,0
					c-0.1,0-0.1,0-0.2,0c-0.1,0-0.1,0.1-0.2,0.1C91,72,91,72,90.9,72.2c0,0.1,0,0.2,0,0.3c0.1,0.1,0.2,0.2,0.3,0.2
					c0.1,0,0.2,0,0.3,0c0.1,0,0.1,0,0.2-0.1c0.1,0,0.3-0.1,0.3-0.2C92.1,72.2,92.1,72.1,92.1,72.1z"/>
			</g>
		</g>
		<ellipse opacity="0.42" fill="#736458" cx="87.3" cy="77.4" rx="2.5" ry="3.6"/>
		<g>
			<g>
				
					<rect x="80.5" y="67.9" transform="matrix(0.9918 -0.1278 0.1278 0.9918 -8.084 11.1524)" fill="#333333" width="4.7" height="1.4"/>
				<path fill="#544841" d="M85.3,69c-0.8,0.2-1.5,0.4-2.3,0.5c-0.8,0.1-1.6,0.1-2.4,0.2l-0.1,0l0-0.1c-0.1-0.5-0.1-0.9-0.2-1.3
					l0-0.1l0.1,0c0.8-0.2,1.5-0.3,2.3-0.4c0.8-0.1,1.6-0.2,2.3-0.2l0.2,0l0,0.2C85.3,68,85.3,68.5,85.3,69L85.3,69L85.3,69z
					 M85.3,68.9c-0.1-0.4-0.2-0.9-0.3-1.3l0.2,0.2c-0.8,0.1-1.5,0.3-2.3,0.4c-0.8,0.1-1.6,0.2-2.4,0.2l0.1-0.1
					c0,0.5,0.1,0.9,0.1,1.4l-0.1-0.1c0.8-0.1,1.5-0.4,2.3-0.4C83.7,69,84.5,68.9,85.3,68.9z"/>
			</g>
			<g>
				
					<rect x="89.5" y="68.2" transform="matrix(-0.9918 -0.1278 0.1278 -0.9918 174.1321 148.9339)" fill="#333333" width="4.7" height="1.4"/>
				<path fill="#544841" d="M89.4,69.2c0.8,0,1.6,0,2.3,0.1c0.8,0.1,1.5,0.3,2.3,0.4L94,69.9c0.1-0.5,0.1-0.9,0.1-1.4l0.1,0.1
					c-0.8,0-1.6-0.1-2.4-0.2c-0.8-0.1-1.6-0.2-2.3-0.4l0.2-0.2C89.7,68.4,89.6,68.8,89.4,69.2z M89.3,69.3c0-0.5,0-0.9,0.1-1.4
					l0-0.2l0.2,0c0.8,0.1,1.6,0.1,2.4,0.2c0.8,0.1,1.6,0.2,2.3,0.4l0.1,0l0,0.1c-0.1,0.4-0.2,0.9-0.2,1.3l0,0.1l-0.1,0
					c-0.8-0.1-1.6,0-2.4-0.2C91,69.7,90.1,69.5,89.3,69.3L89.3,69.3L89.3,69.3z"/>
			</g>
		</g>
		<g>
			<path fill="#885746" d="M90.1,77.9c0,0.1,0,0.2,0,0.3c0,0.1,0,0.2,0,0.3c-0.2,0.9-1.3,1.6-2.8,1.6c-1.4,0-2.6-0.7-2.8-1.6
				c0-0.1,0-0.2,0-0.3c0-0.1,0-0.2,0-0.3c0-3,1.2-5.4,2.8-5.4C88.9,72.5,90.1,74.9,90.1,77.9z"/>
			<g>
				<path fill="#544841" d="M90.3,77.9c0,0.2,0.1,0.5,0.1,0.7v0v0c0,0.6-0.6,1.1-1.2,1.4c-0.3,0.2-0.6,0.3-0.9,0.4
					c-0.3,0.1-0.6,0.1-0.9,0.1c-0.3,0-0.6,0-0.9-0.1c-0.3-0.1-0.6-0.2-0.9-0.3c-0.5-0.3-1.1-0.8-1.2-1.4l-0.1,0v0
					c0-1.2,0.1-2.3,0.4-3.5c0.1-0.6,0.4-1.1,0.7-1.7c0.3-0.5,0.8-1,1.5-1.2c0.2,0,0.4-0.1,0.6-0.1c0.1,0,0.3,0,0.5,0.1
					c0.3,0.1,0.6,0.3,0.9,0.6c0.5,0.5,0.8,1,1,1.6C90.2,75.5,90.2,76.7,90.3,77.9z M90.2,77.9c0-0.3-0.1-0.6-0.1-0.9
					c0-0.3-0.1-0.6-0.2-0.8c-0.1-0.6-0.4-1.1-0.6-1.6c-0.3-0.5-0.5-0.9-0.9-1.3c-0.2-0.2-0.4-0.3-0.6-0.4c0,0-0.1,0-0.1,0
					c-0.1,0-0.1,0-0.2,0c-0.1,0-0.2,0-0.3,0c-0.4,0.1-0.8,0.4-1.2,0.9c-0.3,0.4-0.6,0.9-0.8,1.4c-0.2,0.5-0.4,1.1-0.4,1.6
					c-0.1,0.6-0.1,1.1,0,1.7l0,0c0.1,0.5,0.6,0.8,1.1,1c0.2,0.1,0.5,0.2,0.8,0.2c0.3,0,0.5,0.1,0.8,0.1c0.2,0,0.5,0,0.8,0
					c0.3,0,0.7-0.1,0.9-0.2c0.5-0.2,1.3-0.5,1.3-1v0C90.3,78.3,90.2,78.1,90.2,77.9z"/>
			</g>
		</g>
		<g>
			<g>
				<path fill="#BA75B1" d="M92.7,80.7c-0.5,2.3-2.7,4.1-5.4,4.1c-2.6,0-4.9-1.8-5.4-4.1c0.5,0.4,2.7,0.7,5.4,0.7
					C90,81.4,92.2,81.1,92.7,80.7z"/>
				<path fill="#544841" d="M92.8,80.7c-0.1,0.6-0.3,1.2-0.6,1.7c-0.3,0.5-0.8,1-1.3,1.4c-0.5,0.4-1.1,0.7-1.7,0.9
					c-0.3,0.1-0.6,0.2-0.9,0.2c-0.3,0-0.6,0-0.9,0c-1.3-0.1-2.5-0.5-3.5-1.2c-0.5-0.4-1-0.8-1.3-1.3c-0.2-0.3-0.3-0.5-0.5-0.8
					c-0.1-0.3-0.2-0.6-0.3-0.9l-0.1-0.4l0.4,0.2c0.1,0.1,0.4,0.2,0.6,0.2c0.2,0.1,0.4,0.1,0.7,0.1c0.4,0.1,0.9,0.1,1.3,0.1
					c0.9,0.1,1.8,0.1,2.7,0.1c0.9,0,1.8,0,2.7,0c0.5,0,0.9-0.1,1.4-0.1C91.9,80.9,92.3,80.9,92.8,80.7L92.8,80.7L92.8,80.7z
					 M92.7,80.7c-0.4,0.2-0.8,0.3-1.2,0.4c-0.5,0.1-0.9,0.2-1.4,0.2c-0.9,0.1-1.8,0.2-2.7,0.2c-0.9,0-1.8,0-2.8-0.1
					c-0.5,0-0.9-0.1-1.4-0.2c-0.2,0-0.5-0.1-0.7-0.2c-0.2-0.1-0.5-0.1-0.7-0.3l0.3-0.2c0.2,1.1,0.9,2.2,1.8,3c0.5,0.4,1,0.6,1.6,0.8
					c0.6,0.2,1.2,0.2,1.8,0.2c0.6,0,1.2-0.1,1.7-0.3c0.6-0.2,1.1-0.4,1.6-0.8c0.5-0.3,0.9-0.8,1.3-1.2c0.2-0.2,0.3-0.5,0.5-0.8
					C92.5,81.3,92.6,81,92.7,80.7z"/>
			</g>
			<g>
				<path fill="#FFFFFF" d="M92.7,80.7c0,0.2-0.1,0.3-0.1,0.5c-0.1,0.2-0.2,0.5-0.3,0.7c-0.9,0.3-2.7,0.4-4.8,0.4
					c-2.3,0-4.3-0.2-5.1-0.5c-0.1-0.2-0.2-0.3-0.2-0.5c-0.1-0.2-0.1-0.4-0.2-0.6c0.2,0.1,0.5,0.2,1,0.3c1,0.2,2.6,0.3,4.4,0.3
					c1.9,0,3.6-0.1,4.6-0.4C92.3,80.9,92.6,80.8,92.7,80.7z"/>
				<path fill="#544841" d="M92.8,80.7L92.7,81c0,0.1,0,0.2-0.1,0.3L92.4,82l0,0l-0.1,0c-0.8,0.3-1.7,0.4-2.5,0.4
					c-0.8,0.1-1.7,0.1-2.5,0.1c-0.8,0-1.7-0.1-2.5-0.2c-0.8-0.1-1.7-0.2-2.5-0.4l0,0l0,0c-0.1-0.2-0.2-0.4-0.3-0.6l-0.2-0.6
					l-0.1-0.4l0.4,0.2c0.2,0.1,0.4,0.2,0.6,0.2c0.2,0,0.4,0.1,0.7,0.1c0.4,0.1,0.9,0.1,1.3,0.1c0.9,0.1,1.8,0.1,2.7,0.1
					c0.9,0,1.8,0,2.7,0c0.5,0,0.9,0,1.4-0.1C91.9,80.9,92.3,80.9,92.8,80.7L92.8,80.7z M92.7,80.8c-0.4,0.2-0.8,0.3-1.2,0.4
					c-0.5,0.1-0.9,0.2-1.4,0.2c-0.9,0.1-1.8,0.2-2.7,0.2c-0.9,0-1.8,0-2.8-0.1c-0.5,0-0.9-0.1-1.4-0.2c-0.2,0-0.5-0.1-0.7-0.2
					c-0.2-0.1-0.5-0.1-0.7-0.3l0.2-0.2l0.1,0.6c0.1,0.2,0.1,0.4,0.2,0.5l-0.1-0.1c0.8,0.3,1.6,0.4,2.4,0.5c0.8,0.1,1.7,0,2.5,0
					l2.5-0.1c0.8-0.1,1.7-0.1,2.5-0.3l-0.1,0.1l0.3-0.6c0.1-0.1,0.1-0.2,0.1-0.3L92.7,80.8z"/>
			</g>
		</g>
	</g>
	<path fill="#FFFFFF" stroke="#736458" stroke-width="1.2001" stroke-miterlimit="14" d="M120.1,6.4c0.1-0.4-0.2-0.9-0.7-1
		C80.1-1,40.6-1,1.3,5.4C0.8,5.5,0.5,6,0.6,6.4c0,0.1,0,0.1,0,0.2c1.6,4.2,3.3,8.4,4.8,12.6c3.2,8.6,6.3,17.2,9.3,25.8
		c0.2,0.5,0.7,0.8,1.2,0.7c2.8-0.4,5.6-0.7,8.4-1c0.7,3.5,2.3,8.4,2.3,8.4s-0.9-4.8-0.9-8.5c10.7-1.1,21.3-1.8,32-1.8
		c0.3,3.4,0.9,6.7,0.9,6.7s0-3.4,0.3-6.7c10.7,0,21.4,0.4,32.1,1.5c0.2,3.5-0.6,9.8-0.6,9.8s1.8-5.9,2.4-9.6
		c3.9,0.4,7.8,0.9,11.7,1.4c0.5,0.1,1-0.3,1.2-0.7c3-8.6,6.1-17.2,9.3-25.8c1.6-4.2,3.2-8.4,4.9-12.6C120.1,6.5,120.1,6.5,120.1,6.4
		z"/>
	<g>
		<path fill="#736458" d="M28.9,31c-0.1,0-0.1,0-0.2-0.1c-0.3-0.1-0.4-0.3-0.4-0.5v-0.1l0,0c0.1-0.4,0.1-0.8,0.1-1.4
			c0-0.2,0-0.4-0.1-0.6c0-0.8-0.1-1.4-0.1-1.8v-0.4c0-0.7,0.1-1.8,0.1-3.2c0-1.1,0-2.3,0-3.8c0-0.8,0-1.6,0-2.3
			c0-1.9,0.1-3.6,0.2-4.8c0.1-0.3,0.3-0.6,0.5-0.6h0.1c0,0,0,0.1,0.1,0.1c0,0,0,0,0.1,0c0.1,0,0.2,0,0.3,0.2
			c0.2,0.1,0.7,0.7,2.7,2.8l1.5,1.6c0.2,0.2,0.3,0.3,0.4,0.4c0.1-0.1,0.2-0.2,0.4-0.4c0.3-0.3,0.7-0.8,1.2-1.4l1.3-1.6
			c0.5-0.6,0.8-1,1-1.1c0.1-0.1,0.3-0.1,0.3-0.1c0.1,0,0.3,0,0.5,0.3l0,0l0,0c0,0.1,0.1,0.2,0.1,0.3c0,4.1,0.1,6.8,0.2,8.2
			c0,0.1,0,0.3,0.1,0.6c0.2,2.3,0.2,4.3,0.2,5.9c0,1.1,0,2-0.1,2.8c-0.1,0.3-0.3,0.4-0.5,0.4h-0.1l0,0.1c-0.3,0-0.4-0.2-0.4-0.4
			v-0.1c0-0.8,0-1.7,0-2.8c0-1.6-0.1-3.5-0.3-5.8c0-0.2-0.1-0.4-0.1-0.5c-0.1-1.4-0.2-3.7-0.2-6.9l-1.2,1.5
			c-0.5,0.7-0.9,1.2-1.2,1.5c-0.2,0.2-0.4,0.4-0.5,0.5c-0.2,0.2-0.4,0.6-0.6,0.6l0,0.3h0c-0.1,0-0.2,0.1-0.3,0l-0.1,0h0
			c-0.1-1-0.2-0.5-0.2-0.6L33,17.2l-1.5-1.7c-0.8-0.9-1.5-1.7-1.9-2.1c-0.1,1-0.1,2.1-0.1,3.4c0,0.7,0,1.5,0,2.4
			c0,1.5,0.1,2.8,0.1,3.9c0,1.4,0,2.4-0.1,3.1l0,0.4c0,0.4,0,0.9,0,1.7c0,0.2,0,0.5,0,0.7c0,0.7,0,1.2-0.1,1.6
			C29.3,31,29,31,28.9,31z"/>
		<path fill="#736458" d="M38.6,12.6c0,4.1,0.1,6.8,0.2,8.2c0,0.1,0,0.3,0.1,0.6c0.2,2.3,0.2,4.3,0.2,5.9c0,1.1,0,2.1-0.1,2.8
			c0,0.1-0.1,0.2-0.2,0.2h-0.1c-0.1,0-0.2-0.1-0.2-0.2v-0.1c0.1-0.8,0.1-1.7,0.1-2.8c0-1.6-0.1-3.5-0.2-5.9c0-0.2,0-0.4-0.1-0.6
			c-0.1-1.5-0.2-4.1-0.2-7.9c-0.2,0.2-0.4,0.4-0.6,0.7l-1.3,1.6c-0.5,0.7-0.9,1.2-1.2,1.5c-0.2,0.2-0.4,0.4-0.5,0.5
			c-0.2,0.1-0.3,0.2-0.4,0.2c-0.1,0-0.1,0-0.1,0L34,17.5c-0.1,0-0.1-0.1-0.2-0.2l-0.5-0.5l-1.5-1.6c-1.4-1.6-2.2-2.5-2.5-2.7
			c-0.1,1.1-0.1,2.5-0.1,4.3c0,0.7,0,1.6,0,2.4c0,1.5,0.1,2.8,0.1,3.9c0,1.3,0,2.4-0.1,3.1v0.4c0,0.4,0,0.9,0,1.7c0,0.2,0,0.5,0,0.7
			c0,0.6,0,1.1-0.1,1.5c0,0.1-0.1,0.2-0.2,0.2c0,0,0,0-0.1,0c-0.1,0-0.2-0.1-0.2-0.1v-0.1c0.1-0.4,0.1-0.9,0.1-1.5
			c0-0.2,0-0.4,0-0.6c0-0.8,0-1.3,0-1.7v-0.4c0-0.7,0.1-1.8,0.1-3.2c0-1.1,0-2.3,0-3.8c0-0.8,0-1.6,0-2.3c0-1.9,0.1-3.5,0.2-4.7
			c0-0.1,0.1-0.2,0.2-0.2h0.1c0,0,0,0,0.1,0c0,0,0.1,0,0.1,0c0,0,0.1,0,0.1,0.1c0.2,0.2,1.1,1.1,2.6,2.8l1.5,1.6
			c0.2,0.2,0.4,0.4,0.5,0.5l0.1,0.1c0.1-0.1,0.2-0.1,0.2-0.2c0.1-0.1,0.3-0.3,0.5-0.5c0.3-0.3,0.7-0.8,1.2-1.5l1.3-1.6
			c0.4-0.5,0.8-0.9,1-1.1c0,0,0.1-0.1,0.1-0.1c0.1,0,0.1,0,0.2,0.1C38.6,12.5,38.6,12.6,38.6,12.6L38.6,12.6z"/>
		<path fill="#736458" d="M44.9,31.4c-0.3,0-0.5-0.2-0.5-0.5c0-1.5,0-3.7-0.1-6.6c-0.1-2.9-0.1-5-0.1-6.5c0,0,0,0,0,0
			c0,0-0.1-0.1-0.1-0.1l-0.3-0.5l-1-1.5c-1-1.5-1.7-2.5-2-2.8c-0.1-0.1-0.2-0.3-0.2-0.4c0-0.1,0-0.2,0.2-0.4
			c0.1-0.1,0.3-0.2,0.4-0.2c0.1,0,0.2,0,0.4,0.2c0.4,0.4,1.1,1.4,2.2,3l1,1.5l1.4-1.8l2-2.8l0,0c0.1-0.1,0.3-0.2,0.4-0.2
			c0.1,0,0.2,0,0.3,0l0.1,0L49,12c0.1,0.1,0.1,0.2,0.1,0.3c0,0.1,0,0.2-0.1,0.3l0,0l-2.1,2.8l-1.2,1.6l-0.4,0.5c0,1.5,0,3.7,0.1,6.5
			c0.1,3,0.1,5.2,0.1,6.7C45.4,31.1,45.2,31.4,44.9,31.4z"/>
		<path fill="#736458" d="M41.3,12.3c0.4,0.4,1.1,1.3,2.1,3l1,1.5l0.3,0.5v0l0.1-0.1l0.4-0.5l1.3-1.7l2-2.7c0,0,0.1-0.1,0.1-0.1
			c0,0,0.1,0,0.1,0c0,0.1,0.1,0.1,0.1,0.1c0,0,0,0.1,0,0.1l-2,2.7l-1.2,1.6L45,17.4l-0.1,0.1c0,1.5,0,3.7,0.1,6.7
			c0.1,3,0.1,5.2,0.1,6.7c0,0.1-0.1,0.2-0.2,0.2c-0.1,0-0.2-0.1-0.2-0.2c0-1.5,0-3.7-0.1-6.6c-0.1-2.9-0.1-5.1-0.1-6.6c0,0,0,0,0,0
			c0,0,0,0,0-0.1c0,0-0.1-0.1-0.1-0.1l-0.3-0.5l-1-1.5c-1-1.6-1.7-2.5-2.1-2.9c0,0-0.1-0.1-0.1-0.1c0,0,0-0.1,0.1-0.1
			c0,0,0.1-0.1,0.1-0.1C41.2,12.2,41.2,12.3,41.3,12.3z"/>
		<path fill="#736458" d="M61.7,31.2c-0.1,0-0.1,0-0.2-0.1l-0.1-0.1V31v-0.1v-0.1c0,0-0.1-0.1-0.1-0.1L61,30.3L60.7,29
			c-0.5-1.8-0.6-2.2-0.7-2.3c-0.5-1.5-1-3.8-1.7-6.9c-0.1-0.3-0.4-1.4-0.8-3.1c-0.5-1.8-0.4-3.2-0.5-4.2l0.4,0v-0.1
			c0-0.3-0.2-0.6,0.1-0.7L57,11.5h0.1c0.3,0,0.4,0.4,0.5,0.6l0,0.1l0,0.1c0.1,0.9,0.4,2.3,0.9,4.1c0.5,1.8,0.8,2.9,0.9,3.2
			c0.7,3,1.2,5.3,1.7,6.7c0,0.2,0.2,0.7,0.7,2.4l0.1,0.2c0-0.1,0-0.2,0.1-0.3c0.1-0.4,0.2-0.8,0.4-1.4c0.2-0.7,0.2-0.9,0.2-1l0,0
			l0,0c0.2-0.8,0.5-2.3,0.7-4.4c0.1-0.7,0.3-1.6,0.5-2.8c0.3-1.3,0.4-2.2,0.5-2.8l0,0c0,0,0-0.2,0.1-0.9c0.1-0.5,0.1-0.9,0.2-1.2
			c0-0.2,0.1-0.6,0.2-1c0.1-0.4,0.2-1,0.4-1.3c0.1-0.2,0.2-0.5,0.5-0.5h0.2l0.1,0.3c0.2,0.1,0.2,0.4,0.2,0.5c0,0.1,0,0.2-0.1,0.3
			c-0.1,0.2-0.2,0.5-0.3,0.9c-0.1,0.4-0.2,0.7-0.2,0.9c0,0.2-0.1,0.6-0.1,1.1c-0.1,0.5-0.1,0.9-0.1,1C65.2,17,65,18,64.7,19.3
			c-0.2,1.2-0.4,2.1-0.5,2.8c-0.3,2.2-0.5,3.7-0.8,4.6l0,0l0,0c0,0-0.1,0.2-0.3,0.9L62.9,29l-0.4,1.3l0,0c-0.1,0.2-0.1,0.3-0.2,0.5
			l0,0l0,0c0,0,0,0.1-0.1,0.1l0,0l0,0C62,31.1,61.9,31.2,61.7,31.2z"/>
		<path fill="#736458" d="M57.3,12.4c0.1,1,0.4,2.4,0.9,4.1c0.5,1.8,0.8,2.8,0.9,3.2c0.7,3,1.2,5.3,1.7,6.8c0.1,0.2,0.3,1,0.7,2.4
			l0.3,1.3l0.1,0.2c0-0.1,0-0.2,0.1-0.2c0.1-0.3,0.2-0.7,0.4-1.3c0.1-0.4,0.2-0.8,0.4-1.4c0.1-0.6,0.2-0.9,0.2-1
			c0.2-0.8,0.5-2.3,0.7-4.4c0.1-0.7,0.3-1.6,0.5-2.8c0.3-1.3,0.4-2.2,0.5-2.8c0-0.1,0.1-0.4,0.1-0.9c0.1-0.5,0.1-0.9,0.2-1.2
			c0-0.2,0.1-0.6,0.2-1c0.1-0.4,0.2-0.7,0.4-1c0-0.1,0.1-0.1,0.1-0.1h0.1c0.1,0,0.1,0.1,0.1,0.1c0,0,0,0.1,0,0.1
			c-0.1,0.2-0.2,0.6-0.3,0.9c-0.1,0.4-0.2,0.7-0.2,0.9c0,0.2-0.1,0.6-0.1,1.1c-0.1,0.5-0.1,0.9-0.1,1c-0.1,0.5-0.3,1.5-0.5,2.8
			c-0.2,1.2-0.4,2.1-0.5,2.8c-0.3,2.1-0.5,3.6-0.7,4.5c0,0.1-0.1,0.4-0.3,1l-0.3,1.4l-0.4,1.3c-0.1,0.2-0.1,0.3-0.2,0.4
			c0,0.1-0.1,0.1-0.1,0.1c-0.1,0.1-0.1,0.1-0.2,0.1c0,0-0.1,0-0.1,0v0l-0.1-0.1v-0.1c0,0,0-0.1-0.1-0.1l-0.1-0.4L61,28.9
			c-0.4-1.4-0.6-2.2-0.7-2.3c-0.4-1.5-1-3.8-1.7-6.8c-0.1-0.3-0.4-1.3-0.8-3.1c-0.5-1.8-0.8-3.2-0.9-4.2v-0.1c0-0.1,0-0.1,0.1-0.1
			h0.1C57.2,12.3,57.2,12.3,57.3,12.4z"/>
		<path fill="#736458" d="M69.6,31.3c-0.6,0-1.1-0.2-1.5-0.6c-0.5-0.4-0.9-1.1-1.1-2c-0.4-1.4-0.5-3.4-0.5-5.8c0-0.4,0-0.9,0-1.3
			c0.1-3.1,0.4-5.5,0.9-7.1c0.3-0.8,0.7-1.5,1.1-1.9c0.3-0.3,0.7-0.6,1.1-0.6c0.1,0,0.2,0,0.2,0c0.4,0,0.7,0.1,1.1,0.4
			c0.1,0,0.1,0.1,0.3,0.2c0.2,0.1,0.3,0.2,0.4,0.2c0.1,0.1,0.2,0.2,0.3,0.3c0.1,0.1,0.3,0.3,0.3,0.4c0.3,0.5,0.5,1.1,0.5,1.9
			c0,0,0,0.1,0,0.1c0,0.1,0,0.1,0,0.2c0,0.5,0.1,1.3,0.2,2.4c0.1,1.2,0.7,2.1,0.7,2.7c0.1,0.7,0.6,1.5,0.6,2.5v0.4
			c0,0.8-0.5,1.6-0.6,2.4c-0.1,0.9-0.5,1.7-0.8,2.5c-0.2,0.8-0.7,1.4-1.2,1.9c-0.5,0.5-1.1,0.8-1.8,0.8
			C69.8,31.3,69.7,31.3,69.6,31.3z M69.8,13C69.8,13,69.8,13,69.8,13L69.8,13c-0.3,0.1-0.4,0.2-0.6,0.3c-0.3,0.3-0.6,0.8-0.8,1.5
			c-0.5,1.5-0.8,3.8-0.9,6.8c0,0.4,0,0.9,0,1.3c0,2.4,0.2,4.3,0.5,5.6c0.2,0.6,0.4,1.1,0.7,1.3c0.3,0.3,0.5,0.4,0.9,0.4
			c0,0,0,0,0.1,0l0,0l0,0c0.4,0,0.7-0.2,1.1-0.5c0.4-0.3,0.6-0.8,0.8-1.4c0.2-0.8,0.4-1.6,0.5-2.4c0.1-0.7,0.1-1.4,0.1-2.1v-0.6
			c0-1-0.1-1.8-0.1-2.4c-0.1-0.6-0.1-1.5-0.3-2.7l-0.1-0.5c-0.1-0.1-0.2-0.2-0.2-0.4c0-0.2,0-0.5,0-0.9c0-0.5,0-0.8-0.1-0.9
			c0-0.7-0.2-1.2-0.4-1.6c0-0.1-0.1-0.1-0.1-0.2C71,13.6,71,13.6,71,13.6l0,0l-0.3-0.2c-0.1-0.1-0.2-0.1-0.3-0.2l0,0l0,0
			C70.1,13,70,13,69.8,13z"/>
		<path fill="#736458" d="M72.4,15.5c0,0,0,0.1,0,0.1c0,0.5,0.1,1.3,0.2,2.5c0.1,1.1,0.2,2,0.3,2.7c0.1,0.7,0.1,1.5,0.1,2.5v0.4
			c0,0.8,0,1.6-0.1,2.3c-0.1,0.9-0.3,1.7-0.5,2.5c-0.2,0.7-0.6,1.3-1,1.7c-0.5,0.4-1,0.7-1.5,0.7c-0.1,0-0.2,0-0.3,0
			c-0.5,0-0.9-0.2-1.3-0.5c-0.4-0.4-0.8-1-1-1.8c-0.4-1.4-0.5-3.3-0.5-5.7c0-0.4,0-0.8,0-1.3c0.1-3.1,0.3-5.4,0.9-7
			c0.3-0.8,0.6-1.4,1-1.8c0.3-0.3,0.6-0.5,0.9-0.5c0.1,0,0.1,0,0.2,0c0.3,0,0.6,0.1,0.9,0.3c0.1,0,0.2,0.1,0.3,0.2
			c0.1,0.1,0.3,0.1,0.3,0.2c0.1,0.1,0.2,0.1,0.3,0.2c0.1,0.1,0.2,0.2,0.3,0.3c0.3,0.5,0.4,1.1,0.5,1.8
			C72.3,15.4,72.4,15.4,72.4,15.5z M72.1,17.2c0-0.2,0-0.5,0-0.9c0-0.4,0-0.8-0.1-0.9c0-0.7-0.2-1.3-0.4-1.7
			c-0.1-0.1-0.1-0.2-0.2-0.3s-0.2-0.1-0.2-0.2L70.8,13c-0.1-0.1-0.2-0.2-0.3-0.2c-0.2-0.2-0.5-0.2-0.7-0.2c-0.1,0-0.1,0-0.2,0
			c-0.2,0.1-0.5,0.2-0.7,0.4c-0.4,0.4-0.7,0.9-0.9,1.7c-0.5,1.5-0.8,3.8-0.9,6.9c0,0.4,0,0.9,0,1.3c0,2.4,0.2,4.3,0.5,5.7
			c0.2,0.7,0.5,1.2,0.9,1.5c0.3,0.3,0.7,0.5,1.1,0.5c0.1,0,0.1,0,0.2,0c0.5,0,0.9-0.2,1.3-0.6c0.4-0.4,0.7-0.9,0.9-1.5
			c0.2-0.8,0.4-1.6,0.6-2.4c0.1-0.7,0.1-1.4,0.1-2.2v-0.6c0-1-0.1-1.8-0.1-2.4c-0.1-0.6-0.1-1.5-0.3-2.7l-0.1-0.7
			C72.1,17.3,72.1,17.3,72.1,17.2z"/>
		<path fill="#736458" d="M76.2,30.8c-0.3,0-0.5-0.2-0.5-0.5c0-1.9,0-4.9-0.1-8.8c-0.1-3.9-0.1-6.9-0.1-8.9c0-0.3,0.2-0.5,0.5-0.5
			s0.5,0.2,0.5,0.5c0,2,0,4.9,0.1,8.9c0.1,3.9,0.1,6.9,0.1,8.8C76.7,30.6,76.5,30.8,76.2,30.8z"/>
		<path fill="#736458" d="M76.2,12.6c0,2,0,4.9,0.1,8.9c0.1,3.9,0.1,6.9,0.1,8.8c0,0.1-0.1,0.2-0.2,0.2S76,30.4,76,30.3
			c0-2,0-4.9-0.1-8.8c-0.1-3.9-0.1-6.9-0.1-8.9c0-0.1,0.1-0.2,0.2-0.2C76.2,12.4,76.2,12.5,76.2,12.6z"/>
		<path fill="#736458" d="M82.5,30.5c-0.6,0-1.1-0.2-1.6-0.5c-0.5-0.4-0.9-0.8-1.2-1.4c-0.5-1.1-0.9-2.2-1.1-3.5c-0.2-1-0.2-2-0.2-3
			c0-0.3,0-0.5,0-0.8c0.1-1.2,0.2-2.4,0.5-3.6c0.4-1.6,0.8-2.9,1.3-3.8c0.8-1.4,1.9-2.2,3.2-2.2c0.1,0,0.3,0,0.4,0
			c0.5,0,0.9,0.3,1.2,0.7c0.3,0.4,0.9,0.8,1,1.2l0.4,0.1v0.1c0,0.2-0.5,0.4-0.7,0.5c-0.1,0-0.3,0.1-0.4,0.1c-0.1,0-0.4,0-0.6-0.3
			l-0.1,0l0,0c-0.1-0.3-0.2-0.6-0.4-0.8c-0.2-0.2-0.3-0.3-0.5-0.3c-0.1,0-0.2,0-0.3,0c-0.9,0-1.6,0.5-2.2,1.6
			c-0.5,0.8-0.9,2-1.2,3.5c-0.2,1.1-0.4,2.3-0.4,3.4c0,0.3,0,0.5,0,0.8c0,0.9,0.1,1.9,0.2,2.8c0.2,1.2,0.5,2.3,1,3.3
			c0.2,0.4,0.5,0.7,0.8,1c0.4,0.2,0.7,0.4,1.1,0.4l0.1,0c0.4,0,0.7-0.1,1-0.3c0.3-0.2,0.6-0.5,0.8-1c0.3-0.7,0.5-1.6,0.6-3l0,0.3
			c0.1-0.3,0.2-0.1,0.5-0.1h0.1l0.2-0.3c0.3,0.1,0.6,0,0.6,0.2v0.1c0,1.4-0.5,2.5-0.8,3.3c-0.3,0.7-0.7,1.1-1.3,1.4
			c-0.5,0.3-1,0.4-1.6,0.4H82.5z"/>
		<path fill="#736458" d="M84.9,13.9c-0.1-0.4-0.3-0.7-0.5-0.9c-0.2-0.3-0.5-0.4-0.8-0.5c-0.1,0-0.2,0-0.3,0c-1,0-1.9,0.6-2.5,1.8
			c-0.5,0.9-0.9,2.1-1.2,3.6c-0.2,1.2-0.4,2.3-0.5,3.5c0,0.3,0,0.5,0,0.8c0,0.9,0.1,1.9,0.2,2.9c0.2,1.3,0.5,2.4,1,3.4
			c0.2,0.5,0.5,0.9,1,1.1c0.4,0.3,0.8,0.4,1.3,0.5h0.1c0.4,0,0.8-0.1,1.2-0.3c0.4-0.2,0.7-0.6,0.9-1.1c0.3-0.7,0.5-1.7,0.6-3.1
			c0-0.1,0.1-0.1,0.1-0.1h0.1c0.1,0,0.1,0.1,0.1,0.1v0.1c-0.1,1.4-0.3,2.4-0.6,3.1c-0.2,0.6-0.6,1-1,1.3c-0.4,0.3-0.8,0.4-1.3,0.4
			h-0.2c-0.5,0-1-0.2-1.4-0.5c-0.5-0.3-0.8-0.7-1.1-1.3c-0.5-1-0.8-2.2-1-3.4c-0.2-1-0.2-2-0.2-3c0-0.2,0-0.5,0-0.8
			c0.1-1.2,0.2-2.4,0.5-3.5c0.4-1.6,0.8-2.8,1.3-3.7c0.7-1.3,1.7-2,2.8-2c0.1,0,0.2,0,0.3,0c0.4,0,0.7,0.2,1,0.5
			c0.3,0.3,0.5,0.7,0.6,1.1v0.1c0,0.1,0,0.1-0.1,0.1c0,0-0.1,0-0.1,0C85,14,84.9,13.9,84.9,13.9z"/>
		<path fill="#736458" d="M88.4,31.5c-0.1,0-0.1-0.1-0.2-0.1c-0.1,0-0.3-0.1-0.3-0.2c-0.1-0.1-0.4-0.2-0.4-0.4
			c0-0.1-0.2-0.2-0.2-0.2V29c0-0.2,0-0.5,0-0.8c0-0.3,0-0.5,0-0.7v-0.4c0-0.7,0.2-2.4,0.2-4.9c0-1.4-0.1-2.6-0.1-3.7
			c0-0.8,0-1.6,0-2.2v-0.8c0-0.2,0.1-0.3,0.1-0.5c0-0.3,0.1-0.6,0.1-0.9c0-0.5,0.1-1,0.1-1.3c0-0.2,0.1-0.4,0.1-0.5
			c0-0.1,0.1-0.2,0.1-0.2l0,0l0,0c0.1-0.2,0.2-0.3,0.3-0.3c0.2-0.1,0.4-0.2,0.8-0.2c0.3,0,0.6-0.1,1-0.1c0,0,0,0,0,0
			c0.1,0,0.5,0.1,1.8,0.3c0.3,0.1,0.6,0.4,0.6,0.6v0.1l-0.1,0.3c-0.1,0.3-0.4,0.7-0.6,0.7h-0.1l0-0.3c-1.2-0.2-1.5-0.3-1.6-0.3
			c-0.4,0-0.7-0.1-0.9-0.1c-0.1,0-0.1,0-0.2,0c0,0.1,0,0.1,0,0.2c0,0.3-0.1,0.7-0.1,1.2c0,0.2,0,0.5,0,0.8c0,0.1,0.3,0.3,0.3,0.4
			l0.3,0v0.9c0,0.1-0.3,0.3-0.3,0.4c0.8,0,1.4,0,1.8,0.1c0.3,0,0.5,0.3,0.5,0.5v0.1l-0.1,0.2c0,0.3-0.4,0.7-0.7,0.7h-0.1l0.3-0.2
			c-0.4-0.1-1.4-0.3-1.4-0.3v0.7c0,1.1,0,2.4,0,3.9c0,2.2,0,3.7,0,4.6v0.4c0,0.2,0,0.4,0,0.7c0,0.3,0,0.5,0,0.8v1.5H92
			c0.3,0,0.5,0.2,0.5,0.5c0,0.3-0.2,0.5-0.5,0.5H88.4z"/>
		<path fill="#736458" d="M91.6,12.6c-1-0.1-1.5-0.2-1.6-0.2c-0.4,0-0.7-0.1-0.9-0.1c-0.2,0-0.4,0-0.5,0.1h0c0,0,0,0.1,0,0.1
			c0,0.1,0,0.2-0.1,0.4c0,0.3-0.1,0.7-0.1,1.3c0,0.2,0,0.5,0,0.8c0,0.2,0,0.3,0,0.5v0.9c0,0.3,0,0.5,0,0.8c1,0,1.7,0,2.2,0.1
			c0.1,0,0.2,0.1,0.2,0.2v0.1c0,0.1-0.1,0.2-0.2,0.2h-0.1c-0.5-0.1-1.2-0.1-2.2-0.1v1.1c0,1,0,2.3,0.1,3.9c0,2.2,0.1,3.7,0.1,4.6
			v0.4c0,0.2,0,0.4,0,0.7c0,0.3,0,0.6,0,0.8v1.5H92c0.1,0,0.2,0.1,0.2,0.2c0,0.1-0.1,0.2-0.2,0.2h-3.6c-0.1,0-0.1,0-0.1,0h-0.1
			c0,0-0.1,0-0.1-0.1c0,0-0.1,0-0.1-0.1v-0.1c0,0,0-0.1,0-0.1V29c0-0.2,0-0.5,0-0.8c0-0.3,0-0.5,0-0.7v-0.4c0-0.7,0-2.4-0.1-4.9
			c0-1.4-0.1-2.6-0.1-3.7c0-0.8,0-1.6,0-2.2v-0.9c0-0.2,0-0.3,0-0.5c0-0.3,0-0.6,0-0.8c0-0.5,0-1,0.1-1.3c0-0.2,0-0.3,0.1-0.5
			c0-0.1,0-0.1,0.1-0.2c0-0.1,0.1-0.1,0.1-0.1c0.1-0.1,0.3-0.1,0.7-0.1c0.2,0,0.6,0,1,0.1c0.1,0,0.7,0.1,1.7,0.2
			c0.1,0,0.1,0.1,0.1,0.1v0.1C91.7,12.6,91.7,12.6,91.6,12.6L91.6,12.6z"/>
	</g>
</g>
</svg>
